<svg id="Layer_1" data-name="Layer 1" xmlns="http://www.w3.org/2000/svg" width="500" height="121.24" viewBox="0 0 500 121.24">
  <path d="M205.55,274H222.1l-9.19,14.18h-9l-3.85-.07c-20-.55-34.82-16.22-34.82-36V252c0-19.89,15-36.18,36.48-36.18,13.2,0,21.1,4.4,27.59,10.8l-9.8,11.28C214.13,233,208.63,230,201.63,230c-11.79,0-20.28,9.8-20.28,21.79v.2c0,12,8.29,22,20.28,22m145.91-16.87c0-7.17,3.7-10.85,9.47-10.85s9.17,3.68,9.17,10.85v29.8h15.14V252.32c0-12.26-6.67-19.84-18.13-19.84-7.68,0-12.15,4.09-15.65,8.58v-7.58H332.4v53.41h15.14Zm105.83-23.61h15.16v10.77c3.08-7.38,8.07-12.16,17-11.77v15.84h-.81c-10.06,0-16.22,6.09-16.22,18.83v19.74H453.37Zm-35.82,11.16c6.37,0,10.37,4.59,11.25,11.36H406c1.18-6.87,5.28-11.36,11.55-11.36m18.93,30.2H419.24c-6.79,0-11.56-2.5-13.05-9.38h37.16c.1-1.39.2-2.78.2-4,0-15.15-8.17-29-26-29-15.54,0-26.41,12.55-26.41,27.8v.21c0,16.33,11.86,27.59,27.9,27.59h8.87ZM290.39,233.48h15.16v10.77c3.09-7.38,8.07-12.16,17-11.77v15.84h-.78c-10.07,0-16.24,6.09-16.24,18.83v19.74H290.39Zm-35.81,11.16c6.36,0,10.36,4.59,11.24,11.36H243c1.2-6.87,5.28-11.36,11.57-11.36m18.91,30.2H256.26c-6.77,0-11.55-2.5-13-9.38h37.15c.11-1.39.2-2.78.2-4,0-15.15-8.16-29-26-29-15.55,0-26.41,12.55-26.41,27.8v.21c0,16.33,11.85,27.59,27.9,27.59h8.86Z" transform="translate(0 -191.37)"/>
  <path d="M499.19,232.33H500v5.42h-.86v-4.22l-1.86,2.1h-.17l-1.87-2.1v4.22h-.86v-5.42h.82l2,2.23Zm-10.64,0h5V233h-2.1v4.74h-.87V233h-2.06Z" transform="translate(0 -191.37)"/>
  <path d="M24.57,227.83c-2.24-.62-13.08-7.31-14.38-13a60.57,60.57,0,0,1,48-23.49c25.45,0,46.68,16.57,54.72,35l-20.8,2.15c-6.44-9.8-19.16-17.88-34-17.88A42,42,0,0,0,24.57,227.83Z" transform="translate(0 -191.37)"/>
  <path d="M26.39,279.35a41.64,41.64,0,0,0,55.2,7.2,262.34,262.34,0,0,0,27.62-2.18A60.33,60.33,0,0,1,58,312.61c-21.64,0-37.76-10.86-48.35-23.84C11.27,281,18.33,276.57,26.39,279.35Z" transform="translate(0 -191.37)"/>
  <path d="M6.55,284.45c.12-6.15,6-10.48,12-10.48,8.37,0,18.37,4.73,44.81,4.73,17.44,0,43.43-1.83,53.32-3.62l12-18.77c-18.88,3.34-51.28,5.23-68,5.23-28.49,0-42.53-5.28-49.14-5.28A11.55,11.55,0,0,0,0,268.16C0,273.26,2.72,279.58,6.55,284.45Z" transform="translate(0 -191.37)"/>
  <path d="M6.62,219.36c-2.95,3.81-5.28,7.68-5.28,12.73,0,8.88,7.49,22.65,59,22.65,24,0,56.7-2.9,73.4-6.24l12.76-19.8c-31,4.83-61.61,8.35-85.64,8.35C32,237.05,13.36,232.11,6.62,219.36Z" transform="translate(0 -191.37)"/>
</svg>