<svg id="Layer_1" data-name="Layer 1" xmlns="http://www.w3.org/2000/svg" width="559.41" height="493.27" viewBox="0 0 559.41 493.27"><path d="M500.68,254.72c.23.64.46,1.27.67,1.9-.22-.62-.45-1.25-.68-1.88Z" transform="translate(-26.29 -136.63)" fill="none"/><path d="M502.59,260.33c.2.61.39,1.21.57,1.81-.25-.8-.5-1.61-.77-2.42s-.44-1.35-.68-2c-.11-.35-.24-.7-.36-1.06.23.63.44,1.25.64,1.87S502.41,259.72,502.59,260.33Z" transform="translate(-26.29 -136.63)" fill="none"/><path d="M184.46,421.2c1.64,26.66-15.38,56.81-31.79,69.94-2.21,12.14,6,41.56,6,41.56-7.7,4.42-4.31,11.77-.68,25.3,1.13,1.85,3.26,2.44,6.15,2,4.36-2,8.37-3.12,10.88,0,3.53,5.14,10.91,6.45,18.8,6.12,1.45-.31,2-1.37,1.09-2.84-2.68-4.78,1.64-8.46,4.16-5.84s4.5,4.57,5.89,7.28a47.59,47.59,0,0,0,9-.21c-.83-7.16-5.48-12-15.17-13.95-7.19-3.38-12.22-9.71-15.49-17-.58-14.73-2.2-30.86-6.25-47,19.3-27,27.55-57.39,20.3-74.24Z" transform="translate(-26.29 -136.63)" fill="none"/><path d="M454.22,203.53a3.1,3.1,0,0,0-3.49-2.37l-5.3,3.83a33.92,33.92,0,0,0-9.92,1.92,18.39,18.39,0,0,0,10.37,7.44C450.16,212.32,452.49,208.06,454.22,203.53Z" transform="translate(-26.29 -136.63)" fill="none"/><path d="M507.28,200.61c-1.29.5-1.78,2.13-1.32,4l6.37,6.14c1.62.24,2.15-1.2,2.08-3.05A15.18,15.18,0,0,0,507.28,200.61Z" transform="translate(-26.29 -136.63)" fill="none"/><path d="M571.32,315.15c-12.41-14.68-29-25.57-46.31-33.66l-.39-.18-1-.47-1.13-.51c.3-.45.58-.89.85-1.33l.36-.61.47-.83c9.58,6.95,18.28,3.11,20.81-18.58a108.47,108.47,0,0,0-3.81-38.42C540.47,175.7,526,158.25,505,149.81c-58.59-28.18-102-9.65-146.89,41.17-3.46,3-16,1.7-24.12,5.35-46.66.59-48.26,7.16-59.7,7-106.73-8.56-171.81,12.7-204.44,57.18-18.71,29.53-13.57,70-3.33,98.67-1.62,20.79,3.51,35.16,1.66,48.67-7.73,18.85-9.35,41.49-7.21,68.64C47.86,487,47.54,497.17,52.16,507.61c-5.87-1.05-11.39-2.71-16.61-1.38-5.54,1.3-10.45,10-9,18.33,3.08,13.83,11.45,22.36,26,24.67l1,17.33c1.16,11.78,5.31,20.81,14.33,26,10.17.92,24.2,1.77,39.81-1.75,2.5-1.69,4.16-2.85,3.86-10.58a34,34,0,0,0-8.61-22.68,62.35,62.35,0,0,1-1.06-17.65c18.15-20.06,25.81-45.51,25-75.34,1.55-1.58,3.91-2.52,5.69-3.38,1.36,2.26-.13,18.81,7.31,22.38-.31,18.2.3,34.63,6.25,47.36-4.23,8.34.39,22.17,7.42,37,2.59,2.91,6.13,3.4,10.66,1.33,2.53-1.24,4.58-1.47,6-.33,4.79,4.79,12.48,6.14,21.86,6.21a117,117,0,0,0,24.14-2.21c5.42-1.76,8.19-3.87,6.67-10-2.48-11.38-10.07-17.49-21-21.67-14.6-5.85-9.89-32.16-14.33-53.67,14.61-15.77,21.14-37.66,21.33-64.33,18,16.72,36,27.75,54,31.67a26.33,26.33,0,0,1,10,5.66c.31,23.57-.49,57.08,12.33,75-5.75,10.85-6.68,20.4-5,31.67,5.86,4.25,10.88,8.4,14,12.33,3.21,11.15,8.16,19.55,15,25l.67,14c.81,7.67,5.85,11.49,23.67,11.34h35.66c5.75-.86,9.41-2.81,12-5.34.42-5.06,1.14-13.42-1-20-2.83-6-7.67-11.59-13.66-17-5.66-7.57-9-19.31-13.34-32,5-31.31,7.5-61.24,6-89a5.31,5.31,0,0,1,4-.33c5.5,14.25,3.09,33.08,8.67,47.33a7.67,7.67,0,0,1,0,5c-4.5,2.59-6.73,6.88-7.61,11.57v11.56c3.5,33.83,15.87,56.1,40.28,67.87a207.61,207.61,0,0,0,45,.67c4-.74,6.47-3.32,7.66-7.33.83-5.41,1.1-10.55,0-15-2.66-9.44-9.53-15.06-19.33-18-17.57-6.09-18.52-24-19-60.67,6.4-18,10.66-35.92,11.67-53.67,18.27-13,31.29-29.05,36.33-49.66a162.87,162.87,0,0,0,24.68-39.5,168.54,168.54,0,0,0,37.62,9.73c19.79,2.71,54.22-.63,56.42-26.66C586.68,336.72,579.22,324.5,571.32,315.15Zm-3.91,11.74c6.18,21.17-19.51,26.26-35.16,25.19-25.77-1.77-51.93-13.26-71.49-30-9.73-8.32-23.71-24-18.47-37.32.7.81,1.43,1.61,2.21,2.41,6.53,6.8,32.37.36,47.9-13.44l2,.46c7.62,6.71,15.48,11.51,21.87,12a9.82,9.82,0,0,0,3.94-2.82c.52.24,1,.47,1.57.72C539.49,292.63,561.53,306.7,567.41,326.89ZM177.08,486.62c4,16.11,5.67,32.24,6.25,47,3.27,7.31,8.3,13.64,15.49,17,9.69,1.9,14.34,6.79,15.17,13.95a47.59,47.59,0,0,1-9,.21c-1.39-2.71-3.36-4.54-5.89-7.28s-6.84,1.06-4.16,5.84c.9,1.47.36,2.53-1.09,2.84-7.89.33-15.27-1-18.8-6.12-2.51-3.12-6.52-2-10.88,0-2.89.39-5-.2-6.15-2-3.63-13.53-7-20.88.68-25.3,0,0-8.22-29.42-6-41.56,16.41-13.13,33.43-43.28,31.79-69.94l12.92-8.82C204.63,429.23,196.38,459.61,177.08,486.62Zm281.76-89.78c-4.08,22.51-18.71,39.89-37.6,52.9-.48,22-6.72,44.1-13.51,65.44,3.72,31.62,8.9,58.43,20.51,62.66,8,2,15.52,4.58,18.56,7.82.34,1.74.93,3.33.36,4.62-3.93.79-5.29,3.46-2.36,7.52a6.87,6.87,0,0,1-.12,4.78,33.31,33.31,0,0,1-9.28,0c0-4.52-2-9.36-5.56-9.89-6.11-.43-5.31,3.71-3.23,8.1.79,2.2.31,2.52-.13,2.76-2.23.59-15.57.75-20.05-.8-23.34-13.79-35.88-39.19-32.72-74.55,3.76-3,6.51-6.77,7-12.21A132.63,132.63,0,0,0,377,498.25c4.91-22.52,14.79-41.4,36.95-55.18a150.83,150.83,0,0,0-23.12-35.49c-6.85,7.84-9.5,16.85-9.11,26.7-10.1.44-23.3-3.61-36.3-9.77a1.26,1.26,0,0,0-1.3,2,188,188,0,0,0,18.23,17.25,107.29,107.29,0,0,0-13,15.95c2.46,35.81-4.17,93.69-5.29,96.87,4.55,13.27,11.81,29.17,12.77,34.65,5.55,4.69,10.67,9.09,14.82,13a34.24,34.24,0,0,1-.33,16.77,16.56,16.56,0,0,1-4.85.1c.45-3.52-2.1-10.76-8.17-9.38-2.37.71-3,2.71-.69,6.7a4.06,4.06,0,0,1-.61,4.21h-6.19a11,11,0,0,0-4.88-8.14c-4-2.48-8.61.73-5.43,5.3a3.37,3.37,0,0,1,.71,2.84h-15.3c-4-.64-6.62-3.18-6.84-6.68l-.32-14.49c-7.57-6.72-12.8-16.31-16.61-27.67a56.5,56.5,0,0,0-12.37-11.06c-1.62-8-.33-16.63,6.19-26.37-10.09-15.12-15-43.23-12.86-76.34-2.37-5-6.21-9.26-11.39-11.23-28.72-7.22-53.78-25.87-69.83-48.51-6.12-.6-11.89-.87-16.61-.16-1.61-.24-3.15-2.64-3.74-4.56-3.35-15.93-9.22-31.56-18.45-45.43-1.72-1.34-2.63-.44-2.05,1.28,18.52,34.09-9.1,88.09-51,110.23a303.41,303.41,0,0,1-17.9,60.72,270.52,270.52,0,0,0,.65,39.39c6.64,7.15,9.51,16,7.16,21.81a5.54,5.54,0,0,1-3.74,0c-.87-4.5-2.66-7.2-6.08-8.3s-5.39,2.18-3,5.21c1.2,1.47,1.17,2.87.82,3.09-4.45,1.08-10.31.76-16.61,0C61,569.73,62.05,542.56,61,493c1.8-5.56,4.33-10.18,8.14-13.19-1.79-33.45,3-64,17.74-78.45C86.63,388.27,90,377.11,97,367.87c-7.8-25-8-50-2.28-68.69-7.15-8.69-9.64-22.52-8.62-40.21,14.11-18.57,43.28-36.24,63.8-37.11,8.71,13.68,20.8,22.18,36.63,23.12,2.51.33,3.78,3.39,3.25,5.53-5.78,25,.32,41.39,15.3,57.78,3.55,26.69,17,42.69,41,61C257,377,271,397.85,290.54,400.1c1.12,3.31.62,9,0,15l14.32-20.67c-8.1-10.55-13-22.17-12.37-39.06-9.78-8.18-16.05-17.87-17.58-32.88-.59-15.69,1.73-39,7.81-51.44-9.87-14.41-16-30-12.85-48.67,2.18-10.63,38.68-15.62,58.76-11.39,11.43-3.5,21.77-6.12,29.29-6.51-16.37,46,0,83.61,26.54,86.75,4.56-.18,6.85-2.32,9.76-6,3.78-4.89-.65-18,1.47-22.79,13.61-13.49,24.69-22,33.37-18.23,5.48-3.85,11.16-7.36,17.09-8.3,8.47-10.16,12.57-29,16.76-31.58a6.89,6.89,0,0,0,4.07,2c2.56,0,3.47-1.69,3.58-4.24-2.84-6.62-9.87-13.71-14-16.6a4.75,4.75,0,0,1-3.09,2.28c-6.49,1.38-11.05,5.64-16.72,11l-17,.72c-2.45-.13-3.69-.9-2.61-2.93,5.43-9.36,8.22-20.61,9.12-33.2,4.9-2.84,9.46-5.7,10.74-8.79a14.07,14.07,0,0,1-4.72-4.56c29.46-11.4,73.74,5.21,83.34,25.23,2.12,8.46.49,20.34-2.93,20.34a113.46,113.46,0,0,0-14-12A23.77,23.77,0,0,0,494,197.77c11.67,12.46,23.16,24.63,27.35,46.88a52.47,52.47,0,0,1-.27,10.32,90.06,90.06,0,0,1-7.71,19.63,4,4,0,0,1-1.49.64l-.1,0-.13,0a7.55,7.55,0,0,1-1.09.08l-.17-.07c-1.85,0-3.87-.6-4.52-1.57l0-.17c-.11-.72-.24-1.45-.38-2.18-.07-.37-.14-.74-.22-1.11-.26-1.29-.57-2.61-.91-3.94-.09-.37-.19-.74-.29-1.12-.06-.23-.13-.46-.19-.69s-.05-.18-.08-.27c-.19-.69-.39-1.4-.61-2.1h0c-.18-.6-.37-1.2-.57-1.81-.06-.21-.13-.41-.2-.61s-.22-.67-.33-1a1.87,1.87,0,0,0-.07-.22c-.09-.27-.18-.54-.28-.81l-.18-.53-.18-.53c-.22-.62-.45-1.25-.68-1.88v0s0,0,0,0h0a25.19,25.19,0,0,1,4.37-6.77,70.17,70.17,0,0,0,.32-14.16,22.64,22.64,0,0,0,4.4-5.05,21.44,21.44,0,0,0,0-5.37c-.61-2.78-2.87-5.9-6.35-9.28-1.26-.41-2.52.32-2.28,1.3a6.64,6.64,0,0,1,0,5.21,53.66,53.66,0,0,0-10.74-.16c-1.84-.29-2.91-3.18-3.74-6.84a10.59,10.59,0,0,0-4.72,0,31.08,31.08,0,0,0-8.63,6.19c-3.39,3.86-2.95,6.73.36,10.6,2.06,3.79,1.75,6.38-.75,10.38,1.19,4.25,4.57,6.71,10.64,6.53a10.29,10.29,0,0,1-.81,7,38.54,38.54,0,0,0-.65,13l-.05.09c-1.2,2-1.82,2.94-4.69,3.55-3.79-.55-7.94,3.14-12.86,5.37a58.93,58.93,0,0,1-14.81.33c-6.23-2.87-9.6-9.08-10.58-17.91a2.77,2.77,0,0,0-.88-1.2,2.88,2.88,0,0,0-1.56-.59c-3.39-.29-5.64,2.4-5.52,5.65a.14.14,0,0,1,0,.07v0a56.39,56.39,0,0,0,4,11.39c-.69.44-1.36.91-2,1.41-19.32,14.62-9.78,38.84,3.41,53.89,12.23,14,28.12,25,45.45,33A158.89,158.89,0,0,1,458.84,396.84ZM435.51,206.91a33.92,33.92,0,0,1,9.92-1.92l5.3-3.83a3.1,3.1,0,0,1,3.49,2.37c-1.73,4.53-4.06,8.79-8.34,10.82A18.39,18.39,0,0,1,435.51,206.91Zm78.9.84c.07,1.85-.46,3.29-2.08,3.05L506,204.66c-.46-1.92,0-3.55,1.32-4A15.18,15.18,0,0,1,514.41,207.75ZM538,373.25c-31.78-1.73-64.52-15.68-88.53-36.39-14.22-12.27-33.55-35.62-18.34-54.25A25.62,25.62,0,0,1,437,277.4a48.91,48.91,0,0,0,2.74,4.17,20.82,20.82,0,0,0-2.29,10.08c.29,9.26,5.83,17.67,11.76,24.39,18.75,21.29,47.87,34.92,75.62,39,15.74,2.3,46.3,1.28,47.34-20.73.35-7.3-2.8-14.3-6.94-20.37,7.08,7.44,13.37,16.23,15.84,26.21C587.34,365.62,557.89,374.33,538,373.25Z" transform="translate(-26.29 -136.63)"/><path d="M566.38,361.43c-9,6.07-21.09,6.86-31.65,6.34-15.44-.77-30.49-5-44.55-11.32-2.2-1-.29-4.22,1.9-3.24,13.42,6,27.92,10.08,42.65,10.81,9.95.49,21.23-.1,29.76-5.83C566.5,356.85,568.38,360.1,566.38,361.43Z" transform="translate(-26.29 -136.63)"/><path d="M545.3,339.24a14.56,14.56,0,0,1-1,5.33l-32.58-12.3a5.44,5.44,0,0,1-.48,1.33L487.1,321.2a5.62,5.62,0,0,1,.75-1.1l-29-19.39a16.4,16.4,0,0,1,3.68-3.93l26.69,22.07a9.87,9.87,0,0,1,1.37-.72l-23-25a32.18,32.18,0,0,1,7.08-3L493,317.48a14.28,14.28,0,0,1,2.88-.19l-11.15-29.2a45.13,45.13,0,0,1,11.29.26l2.57,29.24a18.81,18.81,0,0,1,3.37,1l8.2-26.88a71.9,71.9,0,0,1,11.55,5.93l-17,22.36a18.3,18.3,0,0,1,2.77,2.15l25.31-14.93a41.2,41.2,0,0,1,6.78,9l-30.15,8.12a14.69,14.69,0,0,1,1.39,2.23l32.86-1.06a21.93,21.93,0,0,1,1.61,7.48l-33.57-4a9.22,9.22,0,0,1,.22,1.54Z" transform="translate(-26.29 -136.63)"/></svg>