<svg id="Layer_1" data-name="Layer 1" xmlns="http://www.w3.org/2000/svg" width="500" height="325.39" viewBox="0 0 500 325.39">
  <path d="M186.55,144.15c-3.49-1-20.39-11.39-22.43-20.22C186.68,94.74,218.28,87.3,238.9,87.3c39.68,0,72.78,25.85,85.32,54.55l-32.44,3.36c-10-15.29-29.86-27.89-53.06-27.89C216.59,117.32,196.86,129.5,186.55,144.15Z" transform="translate(0 -87.3)"/>
  <path d="M189.38,224.49a65,65,0,0,0,86.09,11.24,410.11,410.11,0,0,0,43.06-3.42,94.07,94.07,0,0,1-79.8,44c-33.75,0-58.89-16.94-75.41-37.16C165.8,227.09,176.81,220.15,189.38,224.49Z" transform="translate(0 -87.3)"/>
  <path d="M158.45,232.44c.19-9.58,9.38-16.34,18.73-16.34,13,0,28.64,7.37,69.87,7.37,27.2,0,67.72-2.84,83.14-5.64l18.74-29.26c-29.43,5.2-79.95,8.14-106.08,8.14-44.42,0-66.32-8.23-76.61-8.23-10,0-18,7.92-18,18.56C148.24,215,152.49,224.86,158.45,232.44Z" transform="translate(0 -87.3)"/>
  <path d="M158.57,131c-4.61,5.94-8.24,12-8.24,19.84,0,13.86,11.68,35.32,92,35.32,37.36,0,88.41-4.51,114.44-9.73l19.91-30.87c-48.36,7.54-96.08,13-133.55,13C198.13,158.53,169.07,150.83,158.57,131Z" transform="translate(0 -87.3)"/>
  <path d="M60.73,391.31h25L71.83,412.7H58.28l-5.8-.11C22.25,411.76,0,388.15,0,358.4v-.3c0-30,22.6-54.53,55-54.53,19.9,0,31.8,6.62,41.59,16.27l-14.78,17C73.67,329.48,65.39,325,54.84,325c-17.78,0-30.59,14.76-30.59,32.84v.3c0,18.08,12.51,33.14,30.59,33.14Zm214-25.49c0-10.81,5.56-16.36,14.26-16.36s13.83,5.55,13.83,16.36v44.91h22.82v-52.1c0-18.48-10.05-29.91-27.33-29.91-11.57,0-18.32,6.17-23.58,12.94V330.22H251.94v80.51h22.83Zm159.52-35.6h22.84v16.24c4.65-11.13,12.16-18.33,25.67-17.74v23.89h-1.22c-15.16,0-24.45,9.16-24.45,28.38v29.74H434.29Zm-54,16.84c9.61,0,15.64,6.91,17,17.12H362.88c1.78-10.36,7.95-17.12,17.4-17.12m28.55,45.51h-26c-10.23,0-17.42-3.77-19.68-14.13h56c.15-2.1.3-4.2.3-6,0-22.82-12.31-43.71-39.2-43.71-23.42,0-39.79,18.92-39.79,41.91v.31c0,24.62,17.86,41.59,42,41.59H395.9ZM188.62,330.22h22.85v16.24c4.65-11.13,12.16-18.33,25.65-17.74v23.89H236c-15.18,0-24.48,9.16-24.48,28.38v29.74H188.62Zm-54,16.84c9.59,0,15.61,6.91,17,17.12H117.2c1.81-10.36,8-17.12,17.44-17.12m28.51,45.51h-26c-10.2,0-17.41-3.77-19.66-14.13h56c.16-2.1.3-4.2.3-6,0-22.82-12.31-43.71-39.18-43.71-23.44,0-39.81,18.92-39.81,41.91v.31c0,24.62,17.87,41.59,42.06,41.59h13.35Z" transform="translate(0 -87.3)"/>
  <path d="M494.08,328.69a5.72,5.72,0,1,1-5.93,5.72A5.55,5.55,0,0,1,494.08,328.69Zm0,10.15a4.44,4.44,0,1,0-4.47-4.43A4.21,4.21,0,0,0,494.08,338.84Zm-.92-3.5v2.09H491.7v-6.18h2.17a3.45,3.45,0,0,1,2,.41,1.82,1.82,0,0,1,.75,1.57,1.93,1.93,0,0,1-1.17,1.88l1.41,2.32h-1.65l-1.12-2.09Zm0-1.06h.92c.54,0,1.09-.19,1.09-1s-.55-1-1.09-1h-.92Z" transform="translate(0 -87.3)"/>
</svg>
