<svg id="Layer_1" data-name="Layer 1" xmlns="http://www.w3.org/2000/svg" width="385.94" height="200.74" viewBox="0 0 385.94 200.74"><path d="M499.3,444.64a100.49,100.49,0,0,0-5.23-23.57,2.48,2.48,0,0,0-3.06-1.53L359.85,458.6a2.75,2.75,0,0,1-3.25-1.44c-.41-.84-.84-1.67-1.3-2.48a2.51,2.51,0,0,1,1.06-3.48l123.08-61.43a2.5,2.5,0,0,0,1.21-3.18,119.08,119.08,0,0,0-17.12-28.1,2.51,2.51,0,0,0-3.45-.43L348,441.79a2.49,2.49,0,0,1-3.16-.13,58.09,58.09,0,0,0-5.45-4.42,2.5,2.5,0,0,1-.47-3.61l89.79-109.79a2.5,2.5,0,0,0-.27-3.45,152.31,152.31,0,0,0-36.71-23.82,2.5,2.5,0,0,0-3.31,1.21L327.31,428.05a2.5,2.5,0,0,1-3.05,1.31,57.07,57.07,0,0,0-9.42-2.4,2.47,2.47,0,0,1-2-2.78l19.14-144.91a2.51,2.51,0,0,0-2.21-2.82,215.62,215.62,0,0,0-47.17,0,2.51,2.51,0,0,0-2.2,2.83l19.37,144.91a2.5,2.5,0,0,1-2.07,2.79,57.1,57.1,0,0,0-9.42,2.41,2.49,2.49,0,0,1-3.07-1.31l-60.89-130.3a2.49,2.49,0,0,0-3.29-1.23c-12.61,5.82-24.83,14.09-36.78,24.09a2.52,2.52,0,0,0-.31,3.52l90.24,109.14a2.49,2.49,0,0,1-.49,3.63,58.52,58.52,0,0,0-6.22,5.07,2.48,2.48,0,0,1-3.19.16l-111.81-84a2.5,2.5,0,0,0-3.51.49,176.33,176.33,0,0,0-17.21,27.86,2.5,2.5,0,0,0,1.15,3.33l123.54,61.35a2.51,2.51,0,0,1,1.06,3.47c-.48.86-.94,1.74-1.36,2.63a2.5,2.5,0,0,1-3,1.31l-131.72-39a2.5,2.5,0,0,0-3.1,1.64,113.68,113.68,0,0,0-4.92,23.36,2.49,2.49,0,0,0,2.11,2.73L250,468.35a2.49,2.49,0,0,1,2.09,2.78c-.08.7-.14,1.41-.19,2.12a2.5,2.5,0,0,0,2.5,2.64H358.42a2.51,2.51,0,0,0,2.51-2.65c-.05-.78-.13-1.55-.22-2.32a2.76,2.76,0,0,1,2.3-3.07l134.17-20.51A2.5,2.5,0,0,0,499.3,444.64Z" transform="translate(-113.37 -275.15)" fill="#231f20"/></svg>