<svg xmlns="http://www.w3.org/2000/svg" xmlns:xlink="http://www.w3.org/1999/xlink" viewBox="0 0 281.71 140.44"><defs><style>.a{fill:#646569;}.b{fill:#ee7125;}.c{fill:url(#a);}</style><radialGradient id="a" cx="182.07" cy="-28.64" fy="-39.43735236537649" r="247.01" gradientUnits="userSpaceOnUse"><stop offset="0.06" stop-color="#ea2"/><stop offset="0.36" stop-color="#ed7b25"/><stop offset="0.47" stop-color="#ed7725"/><stop offset="0.53" stop-color="#ee7025"/><stop offset="0.62" stop-color="#ef6225"/><stop offset="0.68" stop-color="#f05725"/><stop offset="0.72" stop-color="#d14324"/><stop offset="0.76" stop-color="#b93422"/><stop offset="0.8" stop-color="#a82922"/><stop offset="0.85" stop-color="#9e2221"/><stop offset="0.9" stop-color="#9b2021"/></radialGradient></defs><title>medivi_logo</title><path class="a" d="M.38,115.06V16.93H11L30,101.66C37.73,64.59,41.6,54,48.9,16.93H59.56v98.13h-7.7V36.54L33.73,115.06H26.21L8.08,36.6v78.46Z"/><path class="a" d="M71.93,83.58,72,74.06c.17-24.35,8-28.85,18.82-28.85,12.37,0,17.22,8.61,17.22,27,0,2.79,0,4.28-.11,7H80.54V89.68c0,18.42,3.82,21.15,10.21,21.15,4.39,0,9-3.19,9.07-16.25v-.46h8v.34c-1,11.75-4.16,22.12-16.93,22.12C76.89,116.59,71.71,109.35,71.93,83.58ZM80.6,75H99.53v-.11C99.36,64.48,100.67,51,91.21,51,80.66,51,80.6,59.23,80.6,74.86Z"/><path class="a" d="M167.61,31.12V20.92h8.55V31.12Zm0,83.93V46.75h8.55v68.31Z"/><path class="a" d="M145.37,115.06v-6.44c-4,6.22-9.52,8-13.8,8-6.33,0-14.43-3.14-14.43-32.67V78.51c0-30.62,8.1-33.3,15.05-33.3,4.68,0,9.52,2.62,13.17,8V16.93h8.55v98.13Zm0-11.69v-45c-3.53-3.93-7.41-6.79-11.46-6.79s-8.21,1.2-8.21,27V84c0,25.6,4.16,26.29,8.5,26.29C137.68,110.27,142,107.41,145.37,103.37Z"/><path class="b" d="M3.08,132.92h.07a3,3,0,0,1,1.3-.27,4,4,0,0,1,1.28.22,3.42,3.42,0,0,1,1.17.67,3.49,3.49,0,0,1,.86,1.17,3.9,3.9,0,0,1,.33,1.67,4.27,4.27,0,0,1-.32,1.72,3.54,3.54,0,0,1-2.16,2,4.82,4.82,0,0,1-1.57.25,4.55,4.55,0,0,1-1.56-.27,3.83,3.83,0,0,1-1.28-.77,3.72,3.72,0,0,1-.87-1.2A3.67,3.67,0,0,1,0,136.55a5.48,5.48,0,0,1,.08-1,4.78,4.78,0,0,1,.24-.86,6.48,6.48,0,0,1,.38-.8q.22-.39.48-.82l3-4.71H6ZM1.6,136.5a2.69,2.69,0,0,0,.17,1,2.22,2.22,0,0,0,.5.77,2.32,2.32,0,0,0,.77.51,2.63,2.63,0,0,0,1,.18,2.63,2.63,0,0,0,1-.18,2.32,2.32,0,0,0,.77-.51,2.21,2.21,0,0,0,.5-.77,2.85,2.85,0,0,0,0-2,2.21,2.21,0,0,0-.5-.77,2.32,2.32,0,0,0-.77-.51A2.63,2.63,0,0,0,4,134a2.63,2.63,0,0,0-1,.18,2.32,2.32,0,0,0-.77.51,2.22,2.22,0,0,0-.5.77A2.7,2.7,0,0,0,1.6,136.5Z"/><path class="b" d="M15.05,128.36h4.11a7.61,7.61,0,0,1,2.19.28,5.83,5.83,0,0,1,1.63.76,4.81,4.81,0,0,1,1.15,1.09,5.83,5.83,0,0,1,.72,1.27,6.41,6.41,0,0,1,.38,1.3,6.87,6.87,0,0,1,.12,1.2,5.93,5.93,0,0,1-.42,2.19,5.54,5.54,0,0,1-1.23,1.88,6.07,6.07,0,0,1-2,1.32,7.25,7.25,0,0,1-2.79.5H15.05Zm1.6,10.29h2a6.61,6.61,0,0,0,1.92-.27,4.66,4.66,0,0,0,1.59-.82,4,4,0,0,0,1.08-1.37,4.36,4.36,0,0,0,.4-1.92,5.74,5.74,0,0,0-.18-1.32,4,4,0,0,0-.69-1.44,4.09,4.09,0,0,0-1.41-1.16,5,5,0,0,0-2.33-.47h-2.4Z"/><path class="b" d="M29.33,128.36h7.61v1.5h-6v3.51h5.59v1.5H30.93v3.78h6.31v1.5H29.33Z"/><path class="b" d="M51.23,133.55v5.81a5.33,5.33,0,0,1-1,.47,10.43,10.43,0,0,1-1.14.34,9.71,9.71,0,0,1-1.2.21,10.5,10.5,0,0,1-1.14.07,6.77,6.77,0,0,1-2.67-.5,5.74,5.74,0,0,1-3.21-3.32,6.65,6.65,0,0,1-.42-2.37,6.46,6.46,0,0,1,.46-2.45,6,6,0,0,1,1.27-2,5.77,5.77,0,0,1,1.94-1.31,6.35,6.35,0,0,1,2.48-.47,7.34,7.34,0,0,1,2.66.41A4.91,4.91,0,0,1,51,129.59l-1.13,1.22a4.18,4.18,0,0,0-1.55-1,5.32,5.32,0,0,0-1.71-.27,4.28,4.28,0,0,0-3.23,1.38,4.44,4.44,0,0,0-.9,1.49,5.22,5.22,0,0,0-.32,1.82,4.86,4.86,0,0,0,.35,1.86,4.59,4.59,0,0,0,1,1.49,4.45,4.45,0,0,0,1.45,1,4.54,4.54,0,0,0,1.81.36,7.84,7.84,0,0,0,1.61-.16,4.51,4.51,0,0,0,1.29-.46V135H47v-1.5Z"/><path class="b" d="M55.82,128.36H60a4.85,4.85,0,0,1,1.87.31,3.18,3.18,0,0,1,1.16.78,2.68,2.68,0,0,1,.59,1.07,4.23,4.23,0,0,1,.17,1.14,3,3,0,0,1-.2,1.09,3.09,3.09,0,0,1-.58.95,3.27,3.27,0,0,1-.92.72,3.19,3.19,0,0,1-1.21.36l3.35,5.38h-2l-3-5.19H57.42v5.19h-1.6Zm1.6,5.19h2.1a5.73,5.73,0,0,0,.92-.07,2.49,2.49,0,0,0,.82-.27,1.51,1.51,0,0,0,.57-.57,2.31,2.31,0,0,0,0-1.95,1.51,1.51,0,0,0-.57-.57,2.48,2.48,0,0,0-.82-.27,5.68,5.68,0,0,0-.92-.08h-2.1Z"/><path class="b" d="M67.67,128.36h7.61v1.5h-6v3.51h5.59v1.5H69.27v3.78h6.31v1.5H67.67Z"/><path class="b" d="M79.53,128.36h7.61v1.5h-6v3.51h5.59v1.5H81.13v3.78h6.31v1.5H79.53Z"/><path class="b" d="M91.73,137.68a2.63,2.63,0,0,0,1.11,1,3.31,3.31,0,0,0,1.39.31,2.82,2.82,0,0,0,.82-.12,2.48,2.48,0,0,0,.76-.37,2.06,2.06,0,0,0,.56-.62,1.64,1.64,0,0,0,.22-.85,1.27,1.27,0,0,0-.43-1,3.74,3.74,0,0,0-1.07-.6q-.64-.24-1.4-.47a5.69,5.69,0,0,1-1.4-.62,3.42,3.42,0,0,1-1.07-1.07,3.34,3.34,0,0,1-.43-1.82,3.14,3.14,0,0,1,.93-2.16,3.91,3.91,0,0,1,1.24-.81,4.62,4.62,0,0,1,1.82-.32,6.37,6.37,0,0,1,1.85.27,3.18,3.18,0,0,1,1.55,1.08l-1.3,1.18a2.15,2.15,0,0,0-.85-.75,2.69,2.69,0,0,0-1.25-.28,3,3,0,0,0-1.11.17,2,2,0,0,0-.71.45,1.59,1.59,0,0,0-.37.59,1.81,1.81,0,0,0-.11.58,1.48,1.48,0,0,0,.43,1.15,3.36,3.36,0,0,0,1.07.65,12.91,12.91,0,0,0,1.4.45,6,6,0,0,1,1.4.56,3.26,3.26,0,0,1,1.07,1,2.84,2.84,0,0,1,.43,1.67,3.53,3.53,0,0,1-.32,1.53,3.4,3.4,0,0,1-.87,1.15,3.88,3.88,0,0,1-1.3.72,5,5,0,0,1-1.6.25A5.81,5.81,0,0,1,92,140a3.53,3.53,0,0,1-1.61-1.23Z"/><path class="b" d="M108.63,128.36h1.6v4.89h6.11v-4.89h1.6v11.79h-1.6v-5.39h-6.11v5.39h-1.6Z"/><path class="b" d="M122.65,128.36h7.61v1.5h-6v3.51h5.59v1.5h-5.59v3.78h6.31v1.5h-7.91Z"/><path class="b" d="M138.2,128.36h1.45l5,11.79h-1.87l-1.18-2.91H136l-1.17,2.91H133Zm2.86,7.48-2.2-5.41h0l-2.23,5.41Z"/><path class="b" d="M147.9,128.36h1.6v10.29h5.41v1.5h-7Z"/><path class="b" d="M159.16,129.85h-3.79v-1.5h9.19v1.5h-3.8v10.29h-1.6Z"/><path class="b" d="M167.93,128.36h1.6v4.89h6.11v-4.89h1.6v11.79h-1.6v-5.39h-6.11v5.39h-1.6Z"/><path class="c" d="M190.66,0V140.4h91.06V0Zm39.61,114.75H218.9L197.74,16.36h11.19l-1.23,3,16.85,85.12,16.12-85.08-1.25-3h11.19Zm39.88.34H259l1.25-3h0V19.26l-1.25-3h11.19l-1.25,3v92.83Z"/></svg>