<?xml version="1.0" encoding="utf-8"?>
<!-- Generator: Adobe Illustrator 25.3.1, SVG Export Plug-In . SVG Version: 6.00 Build 0)  -->
<svg version="1.1" id="Layer_1" xmlns="http://www.w3.org/2000/svg" xmlns:xlink="http://www.w3.org/1999/xlink" x="0px" y="0px"
	 viewBox="0 0 281.7 140.4" style="enable-background:new 0 0 281.7 140.4;" xml:space="preserve">
<style type="text/css">
	.st0{fill:#FFFFFF;}
	.st1{fill:#EE7125;}
	.st2{fill:url(#SVGID_1_);}
</style>
<path class="st0" d="M0.4,115.1V16.9H11l19,84.7C37.7,64.6,41.6,54,48.9,16.9h10.7v98.1h-7.7V36.5l-18.1,78.5h-7.5L8.1,36.6v78.5
	H0.4z"/>
<path class="st0" d="M71.9,83.6l0.1-9.5c0.2-24.3,8-28.8,18.8-28.8c12.4,0,17.2,8.6,17.2,27c0,2.8,0,4.3-0.1,7H80.5v10.5
	c0,18.4,3.8,21.2,10.2,21.2c4.4,0,9-3.2,9.1-16.2v-0.5h8v0.3c-1,11.8-4.2,22.1-16.9,22.1C76.9,116.6,71.7,109.3,71.9,83.6z M80.6,75
	h18.9v-0.1C99.4,64.5,100.7,51,91.2,51c-10.5,0-10.6,8.2-10.6,23.9V75z"/>
<path class="st0" d="M167.6,31.1V20.9h8.6v10.2H167.6z M167.6,115.1V46.8h8.6v68.3L167.6,115.1z"/>
<path class="st0" d="M145.4,115.1v-6.4c-4,6.2-9.5,8-13.8,8c-6.3,0-14.4-3.1-14.4-32.7v-5.4c0-30.6,8.1-33.3,15-33.3
	c4.7,0,9.5,2.6,13.2,8V16.9h8.6v98.1H145.4z M145.4,103.4v-45c-3.5-3.9-7.4-6.8-11.5-6.8s-8.2,1.2-8.2,27V84
	c0,25.6,4.2,26.3,8.5,26.3C137.7,110.3,142,107.4,145.4,103.4z"/>
<path class="st1" d="M3.1,132.9L3.1,132.9c0.5-0.2,0.9-0.3,1.4-0.3c0.4,0,0.9,0.1,1.3,0.2c0.4,0.1,0.8,0.4,1.2,0.7
	c0.4,0.3,0.7,0.7,0.9,1.2c0.2,0.5,0.3,1.1,0.3,1.7c0,0.6-0.1,1.2-0.3,1.7c-0.4,0.9-1.2,1.7-2.2,2c-0.5,0.2-1,0.3-1.6,0.2
	c-0.5,0-1.1-0.1-1.6-0.3c-0.5-0.2-0.9-0.4-1.3-0.8c-0.4-0.3-0.7-0.7-0.9-1.2c-0.2-0.5-0.3-1-0.3-1.6c0-0.3,0-0.7,0.1-1
	c0.1-0.3,0.1-0.6,0.2-0.9c0.1-0.3,0.2-0.5,0.4-0.8c0.1-0.3,0.3-0.5,0.5-0.8l3-4.7H6L3.1,132.9z M1.6,136.5c0,0.3,0.1,0.7,0.2,1
	c0.1,0.3,0.3,0.6,0.5,0.8c0.2,0.2,0.5,0.4,0.8,0.5c0.3,0.1,0.7,0.2,1,0.2c0.3,0,0.7-0.1,1-0.2c0.3-0.1,0.6-0.3,0.8-0.5
	c0.2-0.2,0.4-0.5,0.5-0.8c0.2-0.6,0.2-1.4,0-2c-0.1-0.3-0.3-0.6-0.5-0.8c-0.2-0.2-0.5-0.4-0.8-0.5c-0.3-0.1-0.7-0.2-1-0.2
	c-0.3,0-0.7,0.1-1,0.2c-0.3,0.1-0.6,0.3-0.8,0.5c-0.2,0.2-0.4,0.5-0.5,0.8C1.6,135.8,1.6,136.1,1.6,136.5z"/>
<path class="st1" d="M15.1,128.4h4.1c0.7,0,1.5,0.1,2.2,0.3c0.6,0.2,1.1,0.4,1.6,0.8c0.4,0.3,0.8,0.7,1.1,1.1
	c0.3,0.4,0.5,0.8,0.7,1.3c0.2,0.4,0.3,0.9,0.4,1.3c0.1,0.4,0.1,0.8,0.1,1.2c0,0.7-0.1,1.5-0.4,2.2c-0.3,0.7-0.7,1.3-1.2,1.9
	c-0.6,0.6-1.3,1-2,1.3c-0.9,0.3-1.8,0.5-2.8,0.5h-3.9V128.4z M16.6,138.6h2c0.6,0,1.3-0.1,1.9-0.3c0.6-0.2,1.1-0.4,1.6-0.8
	c0.5-0.4,0.8-0.8,1.1-1.4c0.3-0.6,0.4-1.3,0.4-1.9c0-0.4-0.1-0.9-0.2-1.3c-0.1-0.5-0.4-1-0.7-1.4c-0.4-0.5-0.9-0.9-1.4-1.2
	c-0.7-0.3-1.5-0.5-2.3-0.5h-2.4L16.6,138.6z"/>
<path class="st1" d="M29.3,128.4h7.6v1.5h-6v3.5h5.6v1.5h-5.6v3.8h6.3v1.5h-7.9V128.4z"/>
<path class="st1" d="M51.2,133.6v5.8c-0.3,0.2-0.7,0.3-1,0.5c-0.4,0.1-0.8,0.2-1.1,0.3c-0.4,0.1-0.8,0.2-1.2,0.2
	c-0.4,0-0.8,0.1-1.1,0.1c-0.9,0-1.8-0.2-2.7-0.5c-1.5-0.6-2.7-1.8-3.2-3.3c-0.3-0.8-0.4-1.6-0.4-2.4c0-0.8,0.1-1.7,0.5-2.4
	c0.3-0.7,0.7-1.4,1.3-2c0.6-0.6,1.2-1,1.9-1.3c0.8-0.3,1.6-0.5,2.5-0.5c0.9,0,1.8,0.1,2.7,0.4c0.7,0.3,1.2,0.6,1.7,1.1l-1.1,1.2
	c-0.4-0.4-1-0.8-1.5-1c-0.6-0.2-1.1-0.3-1.7-0.3c-1.2,0-2.4,0.5-3.2,1.4c-0.4,0.4-0.7,0.9-0.9,1.5c-0.2,0.6-0.3,1.2-0.3,1.8
	c0,0.6,0.1,1.3,0.3,1.9c0.2,0.6,0.6,1.1,1,1.5c0.4,0.4,0.9,0.8,1.5,1c0.6,0.2,1.2,0.4,1.8,0.4c0.5,0,1.1-0.1,1.6-0.2
	c0.5-0.1,0.9-0.2,1.3-0.5V135H47v-1.5L51.2,133.6z"/>
<path class="st1" d="M55.8,128.4H60c0.6,0,1.3,0.1,1.9,0.3c0.4,0.2,0.8,0.4,1.2,0.8c0.3,0.3,0.5,0.7,0.6,1.1
	c0.1,0.4,0.2,0.8,0.2,1.1c0,0.4-0.1,0.7-0.2,1.1c-0.1,0.3-0.3,0.7-0.6,0.9c-0.3,0.3-0.6,0.5-0.9,0.7c-0.4,0.2-0.8,0.3-1.2,0.4
	l3.3,5.4h-2l-3-5.2h-1.8v5.2h-1.6V128.4z M57.4,133.6h2.1c0.3,0,0.6,0,0.9-0.1c0.3,0,0.6-0.1,0.8-0.3c0.2-0.1,0.4-0.3,0.6-0.6
	c0.3-0.6,0.3-1.3,0-1.9c-0.1-0.2-0.3-0.4-0.6-0.6c-0.3-0.1-0.5-0.2-0.8-0.3c-0.3-0.1-0.6-0.1-0.9-0.1h-2.1V133.6z"/>
<path class="st1" d="M67.7,128.4h7.6v1.5h-6v3.5h5.6v1.5h-5.6v3.8h6.3v1.5h-7.9V128.4z"/>
<path class="st1" d="M79.5,128.4h7.6v1.5h-6v3.5h5.6v1.5h-5.6v3.8h6.3v1.5h-7.9V128.4z"/>
<path class="st1" d="M91.7,137.7c0.3,0.4,0.7,0.8,1.1,1c0.4,0.2,0.9,0.3,1.4,0.3c0.3,0,0.6,0,0.8-0.1c0.3-0.1,0.5-0.2,0.8-0.4
	c0.2-0.2,0.4-0.4,0.6-0.6c0.1-0.3,0.2-0.6,0.2-0.9c0-0.4-0.1-0.7-0.4-1c-0.3-0.3-0.7-0.5-1.1-0.6c-0.4-0.2-0.9-0.3-1.4-0.5
	c-0.5-0.1-1-0.4-1.4-0.6c-0.4-0.3-0.8-0.6-1.1-1.1c-0.3-0.6-0.5-1.2-0.4-1.8c0-0.8,0.4-1.6,0.9-2.2c0.4-0.3,0.8-0.6,1.2-0.8
	c0.6-0.2,1.2-0.3,1.8-0.3c0.6,0,1.2,0.1,1.8,0.3c0.6,0.2,1.2,0.6,1.6,1.1l-1.3,1.2c-0.2-0.3-0.5-0.6-0.8-0.8
	c-0.4-0.2-0.8-0.3-1.2-0.3c-0.4,0-0.8,0-1.1,0.2c-0.3,0.1-0.5,0.3-0.7,0.4c-0.2,0.2-0.3,0.4-0.4,0.6c-0.1,0.2-0.1,0.4-0.1,0.6
	c0,0.4,0.1,0.8,0.4,1.1c0.3,0.3,0.7,0.5,1.1,0.6c0.5,0.2,0.9,0.3,1.4,0.4c0.5,0.1,1,0.3,1.4,0.6c0.4,0.2,0.8,0.6,1.1,1
	c0.3,0.5,0.5,1.1,0.4,1.7c0,0.5-0.1,1.1-0.3,1.5c-0.2,0.4-0.5,0.8-0.9,1.1c-0.4,0.3-0.8,0.6-1.3,0.7c-0.5,0.2-1.1,0.3-1.6,0.2
	c-0.8,0-1.5-0.2-2.2-0.6c-0.6-0.2-1.2-0.7-1.6-1.2L91.7,137.7z"/>
<path class="st1" d="M108.6,128.4h1.6v4.9h6.1v-4.9h1.6v11.8h-1.6v-5.4h-6.1v5.4h-1.6V128.4z"/>
<path class="st1" d="M122.7,128.4h7.6v1.5h-6v3.5h5.6v1.5h-5.6v3.8h6.3v1.5h-7.9L122.7,128.4z"/>
<path class="st1" d="M138.2,128.4h1.4l5,11.8h-1.9l-1.2-2.9H136l-1.2,2.9H133L138.2,128.4z M141.1,135.8l-2.2-5.4l0,0l-2.2,5.4
	H141.1z"/>
<path class="st1" d="M147.9,128.4h1.6v10.3h5.4v1.5h-7L147.9,128.4z"/>
<path class="st1" d="M159.2,129.9h-3.8v-1.5h9.2v1.5h-3.8v10.3h-1.6V129.9z"/>
<path class="st1" d="M167.9,128.4h1.6v4.9h6.1v-4.9h1.6v11.8h-1.6v-5.4h-6.1v5.4h-1.6V128.4z"/>
<radialGradient id="SVGID_1_" cx="182.07" cy="170.64" r="247.01" fx="182.07" fy="159.8427" gradientTransform="matrix(1 0 0 -1 0 142)" gradientUnits="userSpaceOnUse">
	<stop  offset="6.000000e-02" style="stop-color:#EEAA22"/>
	<stop  offset="0.36" style="stop-color:#ED7B25"/>
	<stop  offset="0.47" style="stop-color:#ED7725"/>
	<stop  offset="0.53" style="stop-color:#EE7025"/>
	<stop  offset="0.62" style="stop-color:#EF6225"/>
	<stop  offset="0.68" style="stop-color:#F05725"/>
	<stop  offset="0.72" style="stop-color:#D14324"/>
	<stop  offset="0.76" style="stop-color:#B93422"/>
	<stop  offset="0.8" style="stop-color:#A82922"/>
	<stop  offset="0.85" style="stop-color:#9E2221"/>
	<stop  offset="0.9" style="stop-color:#9B2021"/>
</radialGradient>
<path class="st2" d="M190.7,0v140.4h91.1V0H190.7z M230.3,114.8h-11.4l-21.2-98.4h11.2l-1.2,3l16.9,85.1l16.1-85.1l-1.2-3h11.2
	L230.3,114.8z M270.1,115.1H259l1.2-3l0,0V19.3l-1.2-3h11.2l-1.2,3v92.8L270.1,115.1z"/>
</svg>
