<?xml version="1.0" encoding="utf-8"?>
<!-- Generator: Adobe Illustrator 26.0.3, SVG Export Plug-In . SVG Version: 6.00 Build 0)  -->
<svg version="1.1" id="Layer_1" xmlns="http://www.w3.org/2000/svg" xmlns:xlink="http://www.w3.org/1999/xlink" x="0px" y="0px"
	 viewBox="0 0 329.3 139.6" style="enable-background:new 0 0 329.3 139.6;" xml:space="preserve">
<style type="text/css">
	.st0{fill:#EF7125;}
	.st1{fill:#FFFFFF;}
	.st2{fill:url(#SVGID_1_);}
	.st3{fill:url(#SVGID_00000063598039614712189100000003451562209668594613_);}
</style>
<path class="st0" d="M174.2,58.2h4v12.3h15.4V58.2h4v29.7h-4V74.3h-15.4v13.6h-4L174.2,58.2z M205.7,58.2h19.2V62h-15.1v8.8h14.1
	v3.8h-14.1v9.5h15.9v3.8h-19.9V58.2z M241,58.2h3.6l12.7,29.7h-4.7l-3-7.3h-14.1l-2.9,7.3h-4.7L241,58.2z M248.2,77.1l-5.5-13.6
	h-0.1L237,77.1H248.2z M261.6,58.2h4v25.9h13.7v3.8h-17.7V58.2z M286.2,62h-9.6v-3.8h23.1V62h-9.6v25.9h-4L286.2,62z M304.5,58.2h4
	v12.3h15.4V58.2h4v29.7h-4V74.3h-15.4v13.6h-4L304.5,58.2z"/>
<path class="st1" d="M159.6,18.3H170c1.9,0,3.7,0.2,5.5,0.7c1.5,0.4,2.8,1.1,4.1,1.9c1.1,0.8,2.1,1.7,2.9,2.8c0.7,1,1.3,2.1,1.8,3.2
	c0.4,1.1,0.8,2.1,1,3.3c0.2,1,0.3,2,0.3,3c0,1.9-0.3,3.8-1,5.5c-0.7,1.8-1.8,3.4-3.1,4.7c-1.5,1.4-3.2,2.6-5.1,3.3
	c-2.2,0.9-4.6,1.3-7,1.3h-9.7L159.6,18.3z M163.6,44.2h5.1c1.6,0,3.3-0.2,4.8-0.7c1.5-0.4,2.8-1.1,4-2.1c1.2-0.9,2.1-2.1,2.8-3.5
	c0.7-1.5,1-3.2,1-4.8c0-1.1-0.2-2.2-0.5-3.3c-0.3-1.3-0.9-2.6-1.7-3.6c-0.9-1.2-2.2-2.2-3.5-2.9c-1.8-0.9-3.8-1.3-5.9-1.2h-6
	L163.6,44.2z M188.9,18.3h19.2v3.8H193v8.9h14.1v3.8H193v9.5h15.9V48h-19.9V18.3z M237.4,31.4V46c-0.8,0.5-1.6,0.9-2.5,1.2
	c-0.9,0.3-1.9,0.6-2.9,0.9c-1,0.2-2,0.4-3,0.5c-1,0.1-1.9,0.2-2.9,0.2c-2.3,0-4.6-0.4-6.7-1.3c-3.8-1.5-6.7-4.6-8.1-8.4
	c-0.7-1.9-1.1-4-1.1-6c0-2.1,0.4-4.2,1.1-6.1c0.7-1.8,1.8-3.5,3.2-5c1.4-1.4,3.1-2.5,4.9-3.3c2-0.8,4.1-1.2,6.2-1.2
	c2.3-0.1,4.6,0.3,6.7,1c1.6,0.6,3.1,1.6,4.4,2.8l-2.8,3.1c-1.1-1.1-2.4-1.9-3.9-2.5c-1.4-0.5-2.9-0.7-4.3-0.7
	c-3.1-0.1-6,1.2-8.1,3.5c-1,1.1-1.8,2.4-2.3,3.8c-0.5,1.5-0.8,3-0.8,4.6c0,1.6,0.3,3.2,0.9,4.7c0.6,1.4,1.4,2.7,2.4,3.8
	c1,1.1,2.3,1.9,3.6,2.5c1.4,0.6,3,0.9,4.6,0.9c1.3,0,2.7-0.1,4-0.4c1.1-0.2,2.2-0.6,3.2-1.2v-8.3h-6.6v-3.8L237.4,31.4z M242.3,18.3
	h10.4c1.6-0.1,3.2,0.2,4.7,0.8c1.1,0.4,2.1,1.1,2.9,2c0.7,0.8,1.2,1.7,1.5,2.7c0.3,0.9,0.4,1.9,0.4,2.9c0,0.9-0.2,1.9-0.5,2.8
	c-0.3,0.9-0.8,1.7-1.5,2.4c-0.7,0.7-1.4,1.3-2.3,1.8c-0.9,0.5-2,0.8-3,0.9l8.4,13.5h-5l-7.6-13.1h-4.5V48h-4L242.3,18.3z
	 M246.3,31.4h5.3c0.8,0,1.6-0.1,2.3-0.2c0.7-0.1,1.4-0.3,2.1-0.7c0.6-0.3,1.1-0.8,1.5-1.5c0.4-0.8,0.6-1.6,0.5-2.5
	c0-0.8-0.1-1.7-0.5-2.5c-0.3-0.6-0.8-1.1-1.5-1.4c-0.6-0.4-1.3-0.6-2-0.7c-0.8-0.1-1.5-0.2-2.3-0.2h-5.3L246.3,31.4z M265.5,18.3
	h19.2v3.8h-15.1v8.9h14.1v3.8h-14.1v9.5h15.9V48h-19.9V18.3z M288.7,18.3h19.2v3.8h-15.1v8.9h14.1v3.8h-14.1v9.5h15.9V48h-19.9V18.3
	z M312.8,41.8c0.7,1.1,1.7,1.9,2.8,2.4c1.1,0.5,2.3,0.8,3.5,0.8c0.7,0,1.4-0.1,2-0.3c0.7-0.2,1.3-0.5,1.9-0.9
	c0.6-0.4,1.1-0.9,1.4-1.5c0.4-0.7,0.6-1.4,0.6-2.2c0.1-1-0.3-2-1.1-2.6c-0.8-0.6-1.7-1.2-2.7-1.5c-1.1-0.4-2.2-0.8-3.5-1.2
	c-1.2-0.4-2.4-0.9-3.5-1.6c-1.1-0.7-2-1.6-2.7-2.7c-0.8-1.4-1.2-3-1.1-4.6c0-2.1,0.9-4,2.4-5.5c0.9-0.9,2-1.5,3.1-2
	c1.5-0.6,3-0.9,4.6-0.8c1.6,0,3.1,0.2,4.7,0.7c1.6,0.5,2.9,1.5,3.9,2.8l-3.3,3c-0.5-0.8-1.3-1.5-2.1-1.9c-1-0.5-2.1-0.7-3.1-0.7
	c-0.9,0-1.9,0.1-2.8,0.4c-0.7,0.2-1.3,0.6-1.8,1.1c-0.4,0.4-0.7,0.9-0.9,1.5c-0.2,0.5-0.3,1-0.3,1.5c-0.1,1.1,0.3,2.1,1.1,2.9
	c0.8,0.7,1.7,1.3,2.7,1.6c1.2,0.4,2.3,0.8,3.5,1.1c1.2,0.3,2.4,0.8,3.5,1.4c1.1,0.6,2,1.4,2.7,2.4c0.8,1.3,1.2,2.7,1.1,4.2
	c0,1.3-0.3,2.7-0.8,3.9c-0.5,1.1-1.3,2.1-2.2,2.9c-1,0.8-2.1,1.4-3.3,1.8c-1.3,0.4-2.6,0.6-4,0.6c-1.9,0-3.7-0.3-5.4-1
	c-1.6-0.6-3-1.7-4.1-3.1L312.8,41.8z"/>
<path class="st1" d="M55.3,139.6c-23.1,0-42.9-8.9-51.2-25.2c-5-9.8-5.4-21.1-1.3-32.8C9.4,62.6,27.2,45,50.5,34.3
	c38.9-17.7,81.4-10.8,94.8,15.4c5,9.8,5.4,21.1,1.4,32.8c-6.6,18.9-24.5,36.6-47.8,47.2C85.2,136.1,70.4,139.4,55.3,139.6
	L55.3,139.6z M94.3,29.1c-14.5,0.2-28.7,3.4-41.8,9.5C30.3,48.7,13.3,65.3,7.1,83.1c-3.7,10.5-3.3,20.5,1.1,29.2
	c12.2,24.1,52,30,88.7,13.3c22.2-10.1,39.1-26.7,45.3-44.5c3.7-10.5,3.3-20.6-1.1-29.2C133.6,37,115.6,29.1,94.3,29.1z"/>
<radialGradient id="SVGID_1_" cx="59.98" cy="91.79" r="108.65" gradientTransform="matrix(1 0 0 -1 0 142)" gradientUnits="userSpaceOnUse">
	<stop  offset="6.000000e-02" style="stop-color:#EEAA22"/>
	<stop  offset="0.36" style="stop-color:#EE7B24"/>
	<stop  offset="0.47" style="stop-color:#EE7724"/>
	<stop  offset="0.53" style="stop-color:#EF7024"/>
	<stop  offset="0.62" style="stop-color:#F06224"/>
	<stop  offset="0.68" style="stop-color:#F05624"/>
	<stop  offset="0.72" style="stop-color:#D14223"/>
	<stop  offset="0.76" style="stop-color:#B93221"/>
	<stop  offset="0.8" style="stop-color:#A82721"/>
	<stop  offset="0.85" style="stop-color:#9E2020"/>
	<stop  offset="0.9" style="stop-color:#9B1E20"/>
</radialGradient>
<path class="st2" d="M134.8,3.5C114.2,11.4,99,20.5,83.4,34.2c-23.2,20.3-38.1,45.5-38,64.6c0,13.3,11,22.3,27.2,22.3
	c19.6,0.1,37.1-15.6,37.1-33.1c0-11.8-10-20.4-23.6-20.4c-10.9,0-19.9,5.1-24.5,13.9l-3-0.2c5.3-15.8,26.1-28.9,45.7-28.8
	c17.6,0,30.9,9.9,30.9,23c0,24.9-42.4,52.4-80.5,52.3c-24.2-0.1-40.5-10.8-40.5-26.5c0-19.7,18.5-42.8,53.3-66.1
	C88,21.4,110,10,133.1,1.4L134.8,3.5z"/>
<radialGradient id="SVGID_00000132064657627385673570000013638629235670097819_" cx="150.93" cy="138.37" r="7.83" gradientTransform="matrix(1 0 0 -1 0 142)" gradientUnits="userSpaceOnUse">
	<stop  offset="0" style="stop-color:#FAAE2D"/>
	<stop  offset="0.15" style="stop-color:#F9A32C"/>
	<stop  offset="0.41" style="stop-color:#F58428"/>
	<stop  offset="0.74" style="stop-color:#EF5423"/>
	<stop  offset="0.81" style="stop-color:#E74B25"/>
	<stop  offset="0.92" style="stop-color:#D23429"/>
	<stop  offset="1" style="stop-color:#BE1E2D"/>
</radialGradient>
<path style="fill:url(#SVGID_00000132064657627385673570000013638629235670097819_);" d="M158.5,6.7c-0.2,3.5-3.2,6.2-6.7,6.1
	s-6.2-3.2-6.1-6.7c0.2-3.5,3.2-6.2,6.7-6.1C156,0.2,158.7,3.1,158.5,6.7C158.5,6.7,158.5,6.7,158.5,6.7"/>
</svg>
