<?xml version="1.0" encoding="utf-8"?>
<!-- Generator: Adobe Illustrator 26.0.3, SVG Export Plug-In . SVG Version: 6.00 Build 0)  -->
<svg version="1.1" id="Layer_1" xmlns="http://www.w3.org/2000/svg" xmlns:xlink="http://www.w3.org/1999/xlink" x="0px" y="0px"
	 viewBox="0 0 698 139.6" style="enable-background:new 0 0 698 139.6;" xml:space="preserve">
<path d="M134.7,3.5c-20.5,7.9-35.8,17.1-51.3,30.7c-23.1,20.3-38,45.5-38,64.6c0,13.3,11,22.3,27.2,22.3c19.6,0,37.1-15.5,37.1-33.1
	c0-11.8-10-20.4-23.6-20.4c-11,0-19.9,5.1-24.5,13.9l-3-0.2c5.3-15.8,26.1-28.9,45.7-28.8c17.6,0,30.8,10,30.9,22.9
	c0,24.9-42.3,52.4-80.5,52.3c-24.2-0.1-40.5-10.8-40.5-26.4c0-19.7,18.5-42.8,53.3-66.1c20.4-13.9,42.4-25.3,65.6-33.9L134.7,3.5z"
	/>
<path d="M145.2,49.8c-6.5-12.8-20.1-21.5-38.2-24.3c-2-0.3-4-0.5-6-0.7c-2,1.4-4,2.9-6,4.4c21,0.2,38.6,8.1,46.1,22.8
	c4.4,8.6,4.8,18.7,1.1,29.1c-6.2,17.8-23.1,34.4-45.3,44.5c-13.1,6.1-27.3,9.3-41.8,9.5c-21.3,0-39.3-8-46.9-22.8
	C3.9,103.6,3.5,93.5,7.1,83c6.2-17.8,23.1-34.4,45.3-44.5c3.3-1.5,6.7-2.8,10-4c1-0.7,2.1-1.4,3.2-2.2c3.1-2.1,6.1-4.1,9.2-6
	c-8.4,1.7-16.5,4.4-24.3,7.9C27.2,44.9,9.4,62.6,2.8,81.5c-4.1,11.7-3.6,23,1.3,32.8c6.5,12.9,20.1,21.5,38.2,24.3
	c4.3,0.7,8.6,1,13,1c15.1-0.2,29.9-3.5,43.6-9.9c23.3-10.6,41.1-28.2,47.7-47.2C150.7,70.8,150.2,59.5,145.2,49.8z"/>
<path d="M158.5,6.7c-0.2,3.5-3.2,6.2-6.7,6c-3.5-0.2-6.2-3.2-6-6.7c0.2-3.5,3.2-6.2,6.7-6C155.9,0.2,158.6,3.2,158.5,6.7"/>
<path d="M472.2,55.6h6.2v19.2h23.9V55.6h6.2v46.2h-6.2V80.6h-23.9v21.1h-6.2V55.6z M516.9,55.6h29.8v5.9h-23.6v13.8H545v5.9h-21.9
	V96h24.7v5.9h-31L516.9,55.6L516.9,55.6z M570.5,55.6h5.7l19.8,46.2h-7.3L584,90.3h-21.9l-4.6,11.4h-7.3L570.5,55.6z M581.8,84.9
	l-8.6-21.2H573l-8.7,21.2H581.8z M599.4,55.6h6.2v40.3h21.3v5.9h-27.5V55.6z M635.4,61.4h-14.9v-5.9h36v5.9h-14.9v40.3h-6.2
	L635.4,61.4z M661.7,55.6h6.2v19.2h23.9V55.6h6.2v46.2h-6.2V80.6h-23.9v21.1h-6.2V55.6z"/>
<path d="M183.7,55.3h16.2c2.9-0.1,5.8,0.3,8.6,1.1c2.3,0.7,4.5,1.7,6.4,3c1.7,1.2,3.3,2.6,4.5,4.3c1.2,1.5,2.1,3.2,2.8,5
	c0.7,1.6,1.2,3.4,1.6,5.1c0.3,1.5,0.4,3.1,0.5,4.7c0,3-0.5,5.9-1.6,8.6c-1.1,2.8-2.7,5.3-4.8,7.4c-2.3,2.3-5,4-8,5.2
	c-3.5,1.4-7.2,2-10.9,2h-15.2L183.7,55.3z M190,95.8h7.9c2.6,0,5.1-0.3,7.6-1.1c2.3-0.7,4.4-1.8,6.3-3.3c1.8-1.5,3.3-3.3,4.3-5.4
	c1.1-2.4,1.6-5,1.6-7.6c0-1.8-0.3-3.5-0.7-5.2c-0.5-2.1-1.4-4-2.7-5.7c-1.5-1.9-3.4-3.5-5.5-4.6c-2.9-1.4-6-2-9.2-1.9h-9.4L190,95.8
	z M229.5,55.3h30v5.9h-23.6V75h22v5.9h-22v14.9h24.9v5.9h-31.2L229.5,55.3L229.5,55.3z M305.4,75.7v22.8c-1.2,0.7-2.5,1.4-3.9,1.8
	c-1.5,0.5-3,1-4.5,1.3c-1.5,0.4-3.1,0.6-4.7,0.8c-1.5,0.2-3,0.3-4.5,0.3c-3.6,0.1-7.2-0.6-10.5-2c-5.9-2.4-10.5-7.1-12.7-13.1
	c-1.1-3-1.7-6.2-1.7-9.4c0-3.3,0.6-6.5,1.8-9.5c1.1-2.9,2.8-5.5,5-7.7s4.8-4,7.6-5.1c3.1-1.3,6.4-1.9,9.8-1.9
	c3.6-0.1,7.1,0.4,10.5,1.6c2.6,1,4.9,2.5,6.8,4.4l-4.4,4.8c-1.7-1.7-3.8-3-6.1-3.8c-2.2-0.7-4.5-1.1-6.8-1.1
	c-4.8-0.1-9.5,1.9-12.7,5.4c-1.6,1.7-2.8,3.7-3.5,5.9c-0.8,2.3-1.3,4.7-1.3,7.2s0.4,5,1.4,7.3c0.9,2.2,2.2,4.2,3.8,5.9
	c1.6,1.7,3.6,3,5.7,3.9c2.3,1,4.7,1.4,7.1,1.4c2.1,0,4.2-0.2,6.3-0.6c1.8-0.3,3.5-0.9,5.1-1.8V81.6h-10.3v-5.9H305.4z M313.1,55.3
	h16.3c2.5-0.1,5,0.3,7.4,1.2c1.7,0.7,3.3,1.8,4.6,3.1c1.1,1.2,1.9,2.6,2.3,4.2c0.4,1.5,0.6,3,0.7,4.5c0,1.5-0.3,2.9-0.8,4.3
	s-1.3,2.6-2.3,3.7s-2.3,2.1-3.6,2.8c-1.5,0.8-3.1,1.3-4.7,1.4l13.1,21.1h-7.8l-11.8-20.5h-7v20.5h-6.3L313.1,55.3z M319.3,75.7h8.3
	c1.2,0,2.4-0.1,3.6-0.3c1.1-0.2,2.2-0.5,3.2-1.1c1-0.5,1.7-1.3,2.3-2.3c0.6-1.2,0.9-2.5,0.8-3.8c0.1-1.3-0.2-2.7-0.8-3.8
	c-0.5-0.9-1.3-1.7-2.3-2.3s-2-0.9-3.1-1.1c-1.2-0.2-2.4-0.3-3.6-0.3h-8.3L319.3,75.7z M349.3,55.3h30v5.9h-23.7V75h22v5.9h-22v14.9
	h24.9v5.9h-31.2L349.3,55.3L349.3,55.3z M385.6,55.3h30v5.9h-23.7V75h22v5.9h-22v14.9h24.9v5.9h-31.2L385.6,55.3L385.6,55.3z
	 M423.3,92c1.1,1.6,2.6,3,4.4,3.8c1.7,0.8,3.6,1.2,5.5,1.2c1.1,0,2.2-0.2,3.2-0.5c1.1-0.3,2.1-0.8,3-1.5c0.9-0.6,1.6-1.5,2.2-2.4
	c0.6-1,0.9-2.2,0.9-3.4c0.1-1.6-0.5-3.1-1.7-4.1c-1.3-1-2.7-1.8-4.2-2.4c-1.7-0.6-3.5-1.2-5.5-1.8c-1.9-0.6-3.8-1.4-5.5-2.5
	s-3.2-2.5-4.2-4.2c-1.2-2.2-1.8-4.7-1.7-7.2c0.1-3.2,1.4-6.3,3.7-8.5c1.4-1.3,3.1-2.4,4.9-3.1c2.3-0.9,4.7-1.3,7.2-1.3
	s4.9,0.3,7.3,1c2.4,0.8,4.6,2.3,6.1,4.3l-5.1,4.7c-0.8-1.3-2-2.3-3.3-3c-1.5-0.8-3.2-1.1-4.9-1.1c-1.5,0-3,0.2-4.4,0.7
	c-1,0.4-2,1-2.8,1.8c-0.7,0.7-1.2,1.5-1.5,2.3c-0.3,0.7-0.4,1.5-0.4,2.3c-0.1,1.7,0.5,3.3,1.7,4.5c1.2,1.1,2.7,2,4.2,2.6
	c1.8,0.7,3.6,1.3,5.5,1.8s3.8,1.2,5.5,2.2c1.7,0.9,3.1,2.2,4.2,3.8c1.2,2,1.8,4.3,1.7,6.6c0,2.1-0.4,4.1-1.3,6
	c-0.8,1.7-2,3.3-3.4,4.5c-1.5,1.3-3.2,2.2-5.1,2.8c-2,0.7-4.1,1-6.3,1c-2.9,0-5.8-0.5-8.5-1.6c-2.6-1-4.8-2.6-6.4-4.8L423.3,92z"/>
</svg>
