<svg xmlns="http://www.w3.org/2000/svg" viewBox="0 0 329.27 139.58"><defs><style>.a{fill:#666363}.b{fill:#ef7125}.c{fill:url(#a)}.d{fill:url(#b)}</style><radialGradient id="a" cx="59.98" cy="50.21" r="108.65" gradientUnits="userSpaceOnUse"><stop offset=".06" stop-color="#ea2"/><stop offset=".36" stop-color="#ee7b24"/><stop offset=".47" stop-color="#ee7724"/><stop offset=".53" stop-color="#ef7024"/><stop offset=".62" stop-color="#f06224"/><stop offset=".68" stop-color="#f05624"/><stop offset=".72" stop-color="#d14223"/><stop offset=".76" stop-color="#b93221"/><stop offset=".8" stop-color="#a82721"/><stop offset=".85" stop-color="#9e2020"/><stop offset=".9" stop-color="#9b1e20"/></radialGradient><radialGradient id="b" cx="150.93" cy="3.63" r="7.83" gradientUnits="userSpaceOnUse"><stop offset="0" stop-color="#faae2d"/><stop offset=".15" stop-color="#f9a32c"/><stop offset=".41" stop-color="#f58428"/><stop offset=".74" stop-color="#ef5423"/><stop offset=".81" stop-color="#e74b25"/><stop offset=".92" stop-color="#d23429"/><stop offset="1" stop-color="#be1e2d"/></radialGradient></defs><title>6_degrees_logo</title><path class="a" d="M174.16 58.23h4v12.33h15.39V58.23h4v29.7h-4V74.34h-15.36v13.59h-4zm31.5 0h19.17V62h-15.15v8.85h14.09v3.77h-14.09v9.52h15.89v3.77h-19.91zm35.34 0h3.65l12.71 29.69h-4.7l-3-7.34h-14.1l-2.94 7.34h-4.7zm7.21 18.83l-5.54-13.63h-.08L237 77.06zm13.43-18.83h4v25.92h13.66v3.77h-17.66zM286.18 62h-9.56v-3.77h23.15V62h-9.57v25.93h-4zm18.28-3.77h4v12.33h15.39V58.23h4v29.7h-4V74.34h-15.36v13.59h-4z"/><path class="b" d="M159.63 18.32H170a19.21 19.21 0 0 1 5.52.71 14.7 14.7 0 0 1 4.11 1.91 12.12 12.12 0 0 1 2.89 2.75 14.72 14.72 0 0 1 1.82 3.19 16.15 16.15 0 0 1 1 3.27 17.22 17.22 0 0 1 .29 3 14.94 14.94 0 0 1-1 5.52 13.93 13.93 0 0 1-3.1 4.74 15.29 15.29 0 0 1-5.1 3.33 18.26 18.26 0 0 1-7 1.26h-9.69zm4 25.92h5.07a16.63 16.63 0 0 0 4.84-.69 11.74 11.74 0 0 0 4-2.08A9.94 9.94 0 0 0 180.3 38a11 11 0 0 0 1-4.84 14.47 14.47 0 0 0-.46-3.33 10 10 0 0 0-1.74-3.63 10.33 10.33 0 0 0-3.54-2.92 12.56 12.56 0 0 0-5.87-1.19h-6zm25.31-25.92h19.17v3.78H193v8.85h14.09v3.77H193v9.52h15.89V48h-19.95zm48.48 13.09V46a13.53 13.53 0 0 1-2.47 1.17 26.34 26.34 0 0 1-2.87.86 24.41 24.41 0 0 1-3 .52 26.46 26.46 0 0 1-2.87.17 17 17 0 0 1-6.73-1.26 14.44 14.44 0 0 1-8.09-8.37 16.77 16.77 0 0 1-1.07-6 16.28 16.28 0 0 1 1.12-6.09 15.21 15.21 0 0 1 3.19-4.95 14.55 14.55 0 0 1 4.89-3.29 16 16 0 0 1 6.25-1.19 18.5 18.5 0 0 1 6.71 1 12.35 12.35 0 0 1 4.36 2.83L234 24.49a10.55 10.55 0 0 0-3.9-2.45 13.44 13.44 0 0 0-4.32-.69 10.79 10.79 0 0 0-8.14 3.48 11.18 11.18 0 0 0-2.26 3.75 13.17 13.17 0 0 0-.8 4.59 12.27 12.27 0 0 0 .88 4.68 11.58 11.58 0 0 0 2.43 3.75 11.19 11.19 0 0 0 3.65 2.5 11.44 11.44 0 0 0 4.57.9 19.74 19.74 0 0 0 4-.4 11.34 11.34 0 0 0 3.25-1.15v-8.27h-6.58v-3.77zm4.91-13.09h10.44a12.21 12.21 0 0 1 4.7.78 8 8 0 0 1 2.91 2 6.72 6.72 0 0 1 1.49 2.68 10.59 10.59 0 0 1 .42 2.87 7.64 7.64 0 0 1-.5 2.75 7.75 7.75 0 0 1-1.45 2.39 8.26 8.26 0 0 1-2.31 1.8 8 8 0 0 1-3 .9l8.4 13.51h-5l-7.55-13.08h-4.49V48h-4zm4 13.08h5.28a14.37 14.37 0 0 0 2.33-.19 6.25 6.25 0 0 0 2.06-.69 3.79 3.79 0 0 0 1.45-1.45 4.87 4.87 0 0 0 .54-2.45 4.88 4.88 0 0 0-.54-2.45 3.79 3.79 0 0 0-1.45-1.44 6.25 6.25 0 0 0-2-.73 14.37 14.37 0 0 0-2.33-.19h-5.28zm19.19-13.08h19.17v3.78h-15.14v8.85h14.09v3.77h-14.09v9.52h15.89V48h-19.92zm23.19 0h19.17v3.78h-15.14v8.85h14.09v3.77h-14.09v9.52h15.89V48h-19.92zm24.08 23.49a6.61 6.61 0 0 0 2.79 2.41 8.34 8.34 0 0 0 3.5.78 7.13 7.13 0 0 0 2.05-.31 6.25 6.25 0 0 0 1.91-.94 5.15 5.15 0 0 0 1.41-1.55A4.13 4.13 0 0 0 325 40a3.21 3.21 0 0 0-1.09-2.62 9.43 9.43 0 0 0-2.71-1.51q-1.61-.61-3.52-1.17a14.3 14.3 0 0 1-3.52-1.57 8.61 8.61 0 0 1-2.71-2.71 8.42 8.42 0 0 1-1.09-4.59 7.92 7.92 0 0 1 2.35-5.45 9.83 9.83 0 0 1 3.12-2 11.63 11.63 0 0 1 4.59-.82 16 16 0 0 1 4.66.67A8 8 0 0 1 329 21l-3.27 3a5.43 5.43 0 0 0-2.14-1.89 6.77 6.77 0 0 0-3.15-.71 7.63 7.63 0 0 0-2.79.44 5 5 0 0 0-1.78 1.13 4 4 0 0 0-.94 1.49 4.56 4.56 0 0 0-.27 1.47 3.74 3.74 0 0 0 1.09 2.89 8.47 8.47 0 0 0 2.71 1.64 32.55 32.55 0 0 0 3.52 1.13 15.08 15.08 0 0 1 3.52 1.4 8.21 8.21 0 0 1 2.71 2.43 7.16 7.16 0 0 1 1.09 4.21 8.87 8.87 0 0 1-.82 3.86 8.55 8.55 0 0 1-2.2 2.89 9.77 9.77 0 0 1-3.27 1.8 12.65 12.65 0 0 1-4 .63 14.64 14.64 0 0 1-5.41-1 8.89 8.89 0 0 1-4.07-3.1z"/><path class="a" d="M55.34 139.58c-23.14 0-42.88-8.85-51.24-25.25-5-9.76-5.44-21.09-1.35-32.79C9.37 62.6 27.23 45 50.52 34.34c38.9-17.73 81.42-10.8 94.77 15.43 5 9.76 5.43 21.1 1.35 32.8-6.62 18.94-24.48 36.58-47.77 47.19a106.07 106.07 0 0 1-43.53 9.82zm38.92-110.5a102 102 0 0 0-41.81 9.48C30.28 48.66 13.34 65.3 7.13 83.07c-3.66 10.47-3.28 20.55 1.1 29.15 12.25 24.05 52 30 88.72 13.31 22.16-10.1 39.1-26.73 45.31-44.5 3.66-10.47 3.28-20.56-1.1-29.16-7.55-14.87-25.58-22.79-46.9-22.79z"/><path class="c" d="M134.78 3.49C114.23 11.37 99 20.55 83.43 34.23c-23.18 20.3-38.06 45.55-38 64.63 0 13.28 11 22.31 27.23 22.35 19.57.05 37.11-15.55 37.09-33.13 0-11.79-10-20.38-23.58-20.42-10.94 0-19.89 5.1-24.52 13.87l-3-.22c5.28-15.85 26.15-28.87 45.72-28.82 17.58 0 30.86 9.93 30.88 23 0 24.86-42.36 52.41-80.5 52.31-24.21-.06-40.48-10.81-40.5-26.47 0-19.71 18.5-42.82 53.28-66.09a308.66 308.66 0 0 1 65.59-33.89z"/><path class="d" d="M158.54 6.67A6.37 6.37 0 1 1 152.48 0a6.36 6.36 0 0 1 6.05 6.67"/></svg>