<svg xmlns="http://www.w3.org/2000/svg" viewBox="0 0 329.27 139.9"><title>6_degrees_logo_black</title><path d="M174.16,58.41h4V70.74h15.39V58.41h4V88.1h-4V74.52H178.19V88.1h-4Z"/><path d="M205.66,58.41h19.17v3.77H209.68V71h14.09v3.77H209.68v9.52h15.89V88.1H205.66Z"/><path d="M241,58.41h3.65L257.37,88.1h-4.7l-3-7.34H235.56l-2.94,7.34h-4.7Zm7.21,18.83-5.54-13.63h-.08L237,77.24Z"/><path d="M261.64,58.41h4V84.33H279.3V88.1H261.64Z"/><path d="M286.18,62.19h-9.56V58.41h23.15v3.77H290.2V88.1h-4Z"/><path d="M304.46,58.41h4V70.74h15.39V58.41h4V88.1h-4V74.52H308.49V88.1h-4Z"/><path d="M159.63,18.5H170a19.21,19.21,0,0,1,5.52.71,14.7,14.7,0,0,1,4.11,1.91,12.12,12.12,0,0,1,2.89,2.75,14.72,14.72,0,0,1,1.82,3.19,16.15,16.15,0,0,1,1,3.27,17.22,17.22,0,0,1,.29,3,14.94,14.94,0,0,1-1,5.52,13.93,13.93,0,0,1-3.1,4.74,15.29,15.29,0,0,1-5.1,3.33,18.26,18.26,0,0,1-7,1.26h-9.69Zm4,25.92h5.07a16.63,16.63,0,0,0,4.84-.69,11.74,11.74,0,0,0,4-2.08,9.94,9.94,0,0,0,2.73-3.46,11,11,0,0,0,1-4.84,14.47,14.47,0,0,0-.46-3.33,10,10,0,0,0-1.74-3.63,10.33,10.33,0,0,0-3.54-2.92,12.56,12.56,0,0,0-5.87-1.19h-6Z"/><path d="M188.94,18.5h19.17v3.77H193v8.85h14.09V34.9H193v9.52h15.89v3.77H188.94Z"/><path d="M237.42,31.59V46.22a13.53,13.53,0,0,1-2.47,1.17,26.34,26.34,0,0,1-2.87.86,24.41,24.41,0,0,1-3,.52,26.46,26.46,0,0,1-2.87.17,17,17,0,0,1-6.73-1.26,14.44,14.44,0,0,1-8.09-8.37,16.77,16.77,0,0,1-1.07-6,16.28,16.28,0,0,1,1.15-6.16,15.21,15.21,0,0,1,3.19-4.95,14.55,14.55,0,0,1,4.89-3.29,16,16,0,0,1,6.25-1.19,18.5,18.5,0,0,1,6.71,1,12.35,12.35,0,0,1,4.36,2.83L234,24.67a10.55,10.55,0,0,0-3.9-2.45,13.44,13.44,0,0,0-4.32-.69A10.79,10.79,0,0,0,217.63,25a11.18,11.18,0,0,0-2.26,3.75,13.17,13.17,0,0,0-.8,4.59,12.27,12.27,0,0,0,.88,4.68,11.58,11.58,0,0,0,2.43,3.75,11.19,11.19,0,0,0,3.65,2.5,11.44,11.44,0,0,0,4.57.9,19.74,19.74,0,0,0,4-.4,11.34,11.34,0,0,0,3.25-1.15V35.36h-6.58V31.59Z"/><path d="M242.33,18.5h10.44a12.21,12.21,0,0,1,4.7.78,8,8,0,0,1,2.91,2,6.72,6.72,0,0,1,1.49,2.68,10.59,10.59,0,0,1,.42,2.87,7.64,7.64,0,0,1-.5,2.75,7.75,7.75,0,0,1-1.45,2.39,8.26,8.26,0,0,1-2.31,1.8,8,8,0,0,1-3,.9l8.43,13.55h-5l-7.55-13.08h-4.49V48.19h-4Zm4,13.08h5.28A14.37,14.37,0,0,0,254,31.4a6.25,6.25,0,0,0,2.06-.69,3.79,3.79,0,0,0,1.45-1.45,4.87,4.87,0,0,0,.54-2.45,4.88,4.88,0,0,0-.54-2.45A3.79,3.79,0,0,0,256,22.9a6.25,6.25,0,0,0-2.06-.69,14.37,14.37,0,0,0-2.33-.19h-5.28Z"/><path d="M265.52,18.5h19.17v3.77H269.55v8.85h14.09V34.9H269.55v9.52h15.89v3.77H265.52Z"/><path d="M288.71,18.5h19.17v3.77H292.74v8.85h14.09V34.9H292.74v9.52h15.89v3.77H288.71Z"/><path d="M312.79,42a6.61,6.61,0,0,0,2.79,2.41,8.34,8.34,0,0,0,3.5.78,7.13,7.13,0,0,0,2.05-.31,6.25,6.25,0,0,0,1.91-.94,5.15,5.15,0,0,0,1.41-1.55,4.13,4.13,0,0,0,.54-2.14,3.21,3.21,0,0,0-1.09-2.62,9.43,9.43,0,0,0-2.71-1.51q-1.61-.61-3.52-1.17a14.3,14.3,0,0,1-3.52-1.57,8.61,8.61,0,0,1-2.71-2.71,8.42,8.42,0,0,1-1.09-4.59,7.92,7.92,0,0,1,2.35-5.45,9.83,9.83,0,0,1,3.12-2,11.63,11.63,0,0,1,4.59-.82,16,16,0,0,1,4.66.67,8,8,0,0,1,3.9,2.73l-3.27,3a5.43,5.43,0,0,0-2.14-1.89,6.77,6.77,0,0,0-3.15-.71,7.63,7.63,0,0,0-2.79.44,5,5,0,0,0-1.78,1.13,4,4,0,0,0-.94,1.49,4.56,4.56,0,0,0-.27,1.47,3.74,3.74,0,0,0,1.09,2.89,8.47,8.47,0,0,0,2.71,1.64,32.55,32.55,0,0,0,3.52,1.13,15.08,15.08,0,0,1,3.52,1.4,8.21,8.21,0,0,1,2.71,2.43,7.16,7.16,0,0,1,1.09,4.21,8.87,8.87,0,0,1-.82,3.86,8.55,8.55,0,0,1-2.2,2.89,9.77,9.77,0,0,1-3.27,1.8,12.65,12.65,0,0,1-4,.63,14.64,14.64,0,0,1-5.41-1,8.89,8.89,0,0,1-4.07-3.1Z"/><path d="M135,3.5c-20.58,7.89-35.85,17.09-51.44,30.79C60.36,54.63,45.45,79.92,45.48,99c0,13.31,11,22.35,27.28,22.39,19.6.05,37.18-15.58,37.15-33.19,0-11.81-10-20.42-23.62-20.46-11,0-19.93,5.1-24.56,13.89l-3-.22c5.29-15.88,26.2-28.92,45.8-28.87,17.61,0,30.92,10,30.94,23,0,24.91-42.44,52.5-80.65,52.4-24.25-.06-40.55-10.83-40.58-26.51,0-19.75,18.54-42.89,53.38-66.21a309.21,309.21,0,0,1,65.73-34Z"/><path d="M145.56,49.86C139,37,125.41,28.32,107.29,25.48q-3-.47-6.06-.71-3,2.1-6,4.37c21,.19,38.73,8.15,46.2,22.82,4.39,8.62,4.77,18.72,1.1,29.21-6.22,17.8-23.19,34.46-45.39,44.58a102.16,102.16,0,0,1-41.89,9.49c-21.35,0-39.42-8-47-22.83-4.39-8.62-4.77-18.72-1.11-29.21,6.22-17.8,23.19-34.47,45.39-44.59q5-2.27,10-4,1.57-1.08,3.18-2.16,4.6-3.11,9.26-6A112.27,112.27,0,0,0,50.61,34.4C27.28,45,9.39,62.71,2.76,81.68-1.33,93.4-.87,104.76,4.11,114.53c6.56,12.88,20.15,21.54,38.26,24.38a83.94,83.94,0,0,0,13,1A106.5,106.5,0,0,0,99.05,130c23.33-10.63,41.22-28.3,47.85-47.27C151,71,150.53,59.63,145.56,49.86Z"/><path d="M158.82,6.69A6.38,6.38,0,1,1,152.75,0a6.38,6.38,0,0,1,6.06,6.68"/></svg>