<?xml version="1.0" encoding="utf-8"?>
<!-- Generator: Adobe Illustrator 25.3.1, SVG Export Plug-In . SVG Version: 6.00 Build 0)  -->
<svg version="1.1" id="Layer_1" xmlns="http://www.w3.org/2000/svg" xmlns:xlink="http://www.w3.org/1999/xlink" x="0px" y="0px"
	 viewBox="0 0 158.8 139.9" style="enable-background:new 0 0 158.8 139.9;" xml:space="preserve">
<path d="M135,3.5c-20.6,7.9-35.8,17.1-51.4,30.8C60.4,54.6,45.5,79.9,45.5,99c0,13.3,11,22.3,27.3,22.4
	c19.6,0.1,37.2-15.6,37.2-33.2c0-11.8-10-20.4-23.6-20.5c-11,0-19.9,5.1-24.6,13.9l-3-0.2c5.3-15.9,26.2-28.9,45.8-28.9
	c17.6,0,30.9,10,30.9,23c0,24.9-42.4,52.5-80.7,52.4c-24.2-0.1-40.5-10.8-40.6-26.5c0-19.8,18.5-42.9,53.4-66.2
	c20.5-13.9,42.5-25.3,65.7-34L135,3.5z"/>
<path d="M145.6,49.9C139,37,125.4,28.3,107.3,25.5c-2-0.3-4-0.5-6.1-0.7c-2,1.4-4,2.9-6,4.4c21,0.2,38.7,8.2,46.2,22.8
	c4.4,8.6,4.8,18.7,1.1,29.2c-6.2,17.8-23.2,34.5-45.4,44.6c-13.1,6.1-27.4,9.3-41.9,9.5c-21.3,0-39.4-8-47-22.8
	c-4.4-8.6-4.8-18.7-1.1-29.2c6.2-17.8,23.2-34.5,45.4-44.6c3.3-1.5,6.7-2.8,10-4c1-0.7,2.1-1.4,3.2-2.2c3.1-2.1,6.2-4.1,9.3-6
	c-8.4,1.7-16.6,4.4-24.4,7.9C27.3,45,9.4,62.7,2.8,81.7c-4.1,11.7-3.6,23.1,1.4,32.8c6.6,12.9,20.1,21.5,38.3,24.4
	c4.3,0.7,8.6,1,13,1c15.1-0.2,30-3.5,43.7-9.9c23.3-10.6,41.2-28.3,47.8-47.3C151,71,150.5,59.6,145.6,49.9z"/>
<path d="M158.8,6.7c-0.2,3.5-3.2,6.2-6.7,6.1c-3.5-0.2-6.2-3.2-6.1-6.7c0.2-3.5,3.2-6.2,6.7-6.1C156.3,0.2,159,3.2,158.8,6.7"/>
</svg>
