<svg id="Layer_1" data-name="Layer 1" xmlns="http://www.w3.org/2000/svg" width="503.44" height="369" viewBox="0 0 503.44 369">
  <path d="M270.61,199.44l40.64-85.62a10,10,0,0,1,18.06,0L495.41,462.7a10,10,0,0,1-9,14.29H405a10,10,0,0,1-9-5.7L270.61,208A10,10,0,0,1,270.61,199.44Z" transform="translate(-144.54 -108)"/>
  <path d="M181.48,386.77l-36,76a10,10,0,0,0,9,14.27h72a10,10,0,0,0,9-14.27l-36-76A10,10,0,0,0,181.48,386.77Z" transform="translate(-144.54 -108)"/>
  <path d="M584,330.41a10,10,0,0,1,3.89-12.87c26.55-16,51.4-45.8,51.4-91.67C639.32,165,594.84,108,512.16,108H394a10,10,0,0,0-9,14.29L413.86,183a10,10,0,0,0,9.05,5.7l85-.25c25.12,0,39.77,18.2,39.77,37.44S533.08,263.3,508,263.3l-40.13,0a10,10,0,0,0-9.05,14.26l91.47,193.74a10,10,0,0,0,9,5.73H638a10,10,0,0,0,9-14.29Z" transform="translate(-144.54 -108)"/>
</svg>
