<svg id="Layer_1" data-name="Layer 1" xmlns="http://www.w3.org/2000/svg" width="792" height="1017" viewBox="0 0 792 1017">
  <path d="M0-297V620A100,100,0,0,0,100,720H692A100,100,0,0,0,792,620V-297ZM226.49,504h-72a10,10,0,0,1-9-14.27l36-76a10,10,0,0,1,18.07,0l36,76A10,10,0,0,1,226.49,504Zm259.89,0H405a10,10,0,0,1-9-5.7L270.61,235a10,10,0,0,1,0-8.58l40.63-85.62a10,10,0,0,1,18.06,0l166.1,348.9A10,10,0,0,1,486.38,504ZM638,504H559.32a10,10,0,0,1-9-5.73L458.8,304.53a10,10,0,0,1,9.05-14.26l40.13,0c25.12,0,39.77-18.2,39.77-37.43S533.1,215.43,508,215.43l-85.05.25a10,10,0,0,1-9.06-5.7L385,149.3a10,10,0,0,1,9-14.3H512.17c82.68,0,127.16,57,127.16,117.87,0,45.87-24.86,75.69-51.4,91.67a10,10,0,0,0-3.9,12.87l63,132.3A10,10,0,0,1,638,504Z" transform="translate(0 297)" fill="#000"/>
</svg>
