<svg id="Logo" xmlns="http://www.w3.org/2000/svg" width="362.63" height="391.04" viewBox="0 0 362.63 391.04"><path d="M302.65,200.3,121.14,256.7V260c0,81.5,7.83,150.86,22.65,200.62,16.86,77.59,96.37,107.32,149,127q4.28,1.59,8.28,3.1l1.64.62,1.62-.65c5.4-2.16,10.95-4.33,16.31-6.42,58.57-22.86,119.14-46.49,141.86-126.06,15.69-56.86,21.28-139.45,21.28-197.78v-3.3Zm171.87,81.95L339.28,383.34a.67.67,0,0,1-.85-.06,51.6,51.6,0,0,0-7.1-5.71.65.65,0,0,1-.14-1L434,251l40.73,12.77C474.75,269.68,474.66,275.88,474.52,282.25Zm-4.76,79.82-120.22,35.8a.9.9,0,0,1-1.06-.49,40.52,40.52,0,0,0-2.52-4.79.65.65,0,0,1,.27-.93l126.27-63C471.78,339.69,470.87,350.9,469.76,362.07Zm-172.17,6.36a.64.64,0,0,1-.56.72A50.16,50.16,0,0,0,285.88,372a.65.65,0,0,1-.82-.33L221.37,235l56.1-17.43Zm31.14-150.52,56.54,17.74-64,136a.65.65,0,0,1-.82.33,51,51,0,0,0-11.12-2.81.66.66,0,0,1-.56-.72ZM171.58,250.45,275.74,376.31a.66.66,0,0,1-.15,1,51.86,51.86,0,0,0-7.82,6.32.66.66,0,0,1-.86.06L130.33,281c-.1-5.84-.17-11.74-.18-17.71Zm-39.45,77.47,128.25,63.7a.66.66,0,0,1,.26.93,44.23,44.23,0,0,0-2.57,4.92.65.65,0,0,1-.79.37L134.83,361.55Q133.2,345.31,132.13,327.92Zm185.23,248c-4.85,1.89-9.84,3.84-14.76,5.8-2.16-.82-4.39-1.65-6.67-2.5-12.12-4.53-25.73-9.62-39.63-15.73,29.9-1,61.65-.92,91.69.08C337.84,567.89,327.54,571.91,317.36,575.89Zm82-40.45c-13.17,9.71-27.83,17.52-43,24.4-35.2-1.39-73.27-1.42-108.28-.09-26.29-12.28-52.81-28.49-71.69-51.76,71.07-9.41,177.51-9.66,252-.58A145.63,145.63,0,0,1,399.4,535.44Zm54.42-79.66c-5.23,18.34-12.65,34.12-22.62,47.94-75.72-9.5-185.56-9.23-257.63.61a115.93,115.93,0,0,1-21-45.77l-.09-.33c-6-20.21-10.88-43.77-14.5-70.13l116.72,18.28a.66.66,0,0,1,.54.76,38.21,38.21,0,0,0-.45,5.26.45.45,0,0,0,.44.45q48.64-1.62,96.2,0a.45.45,0,0,0,.45-.45,37.54,37.54,0,0,0-.48-5.44.89.89,0,0,1,.73-1l114.63-17.52C463.56,412.64,459.32,435.84,453.82,455.78Z" transform="translate(-121.14 -200.3)" fill="#231f20"/><path d="M199.84,426.47a1.24,1.24,0,0,0-1.48-1.19l-8.68.92a1.21,1.21,0,0,0-1.2,1.48l5.45,51.12a3,3,0,0,1-3,3.7l-4.34.46a3,3,0,0,1-3.7-3l-.68-6.35a1.24,1.24,0,0,0-1.48-1.19l-8.35.89a1.2,1.2,0,0,0-1.19,1.48l.92,8.69c.84,7.85,5.46,11.58,13.31,10.74l9.36-1c7.77-.83,11.58-5.46,10.74-13.31Z" transform="translate(-121.14 -200.3)" fill="#231f20"/><path d="M244.19,424a1.67,1.67,0,0,0-1.77-1.58l-7.72.46a1.67,1.67,0,0,0-1.57,1.77l3,51c.14,2.26-1,3.42-3.15,3.55l-4.36.26c-2.18.13-3.42-.89-3.56-3.15l-3-51a1.7,1.7,0,0,0-1.78-1.58l-8.05.48a1.67,1.67,0,0,0-1.57,1.77l3.16,53.33c.47,7.88,4.91,11.83,12.79,11.36l9.39-.56c7.88-.47,11.83-4.91,11.36-12.79Z" transform="translate(-121.14 -200.3)" fill="#231f20"/><path d="M286.61,421.13l-8.73.21a1.19,1.19,0,0,0-1.31,1.37l1.23,51.39a3,3,0,0,1-3.28,3.44l-4.36.11a3,3,0,0,1-3.44-3.28l-.15-6.38a1.25,1.25,0,0,0-1.38-1.32l-8.4.21a1.19,1.19,0,0,0-1.31,1.37l.21,8.73c.19,7.9,4.49,12,12.38,11.81l9.41-.23c7.81-.19,12-4.49,11.8-12.38L288,422.44A1.24,1.24,0,0,0,286.61,421.13Z" transform="translate(-121.14 -200.3)" fill="#231f20"/><path d="M307.66,421.09h-8.74a1.2,1.2,0,0,0-1.34,1.35l.05,64.51A1.19,1.19,0,0,0,299,488.3h8.74a1.23,1.23,0,0,0,1.34-1.34l0-64.51A1.25,1.25,0,0,0,307.66,421.09Z" transform="translate(-121.14 -200.3)" fill="#231f20"/><path d="M349.15,421.74l-30.91-.66a1.23,1.23,0,0,0-1.37,1.31l-.18,8.4a1.23,1.23,0,0,0,1.32,1.37l9.74.21-1.18,54.76a1.2,1.2,0,0,0,1.32,1.37l8.73.19c.93,0,1.36-.39,1.38-1.31l1.17-54.76,9.74.21a1.21,1.21,0,0,0,1.38-1.32l.17-8.4A1.19,1.19,0,0,0,349.15,421.74Z" transform="translate(-121.14 -200.3)" fill="#231f20"/><path d="M380.47,423.26l-9.4-.52c-7.8-.43-12.3,3.53-12.74,11.41L357.24,454a3,3,0,0,0,2.09,3.23l19.52,7.63L378.24,476c-.13,2.27-1.36,3.29-3.54,3.17l-4-.22a3,3,0,0,1-3.17-3.54l.36-6.46a1.17,1.17,0,0,0-1.27-1.42l-8.72-.48a1.21,1.21,0,0,0-1.42,1.27L356,477.1c-.43,7.88,3.62,12.31,11.42,12.74l9.39.52c7.88.43,12.31-3.53,12.75-11.41l1.06-19.38a3.06,3.06,0,0,0-2-3.22L369,448.71l.64-11.58a3,3,0,0,1,3.54-3.17l4,.22c2.26.13,3.28,1.36,3.17,3.54l-.37,6.54a1.24,1.24,0,0,0,1.27,1.42l8.73.48a1.19,1.19,0,0,0,1.41-1.27l.49-8.89C392.32,428.12,388.35,423.69,380.47,423.26Z" transform="translate(-121.14 -200.3)" fill="#231f20"/><path d="M435.11,427.92l-7.69-.77a1.68,1.68,0,0,0-1.84,1.5l-5.14,50.81c-.23,2.26-1.51,3.23-3.68,3l-4.35-.44c-2.17-.22-3.23-1.43-3-3.68l5.14-50.82a1.7,1.7,0,0,0-1.5-1.84l-8-.81a1.69,1.69,0,0,0-1.84,1.5l-5.37,53.16c-.8,7.85,3,12.45,10.81,13.25l9.36.95c7.86.79,12.46-3,13.26-10.82l5.37-53.15A1.69,1.69,0,0,0,435.11,427.92Z" transform="translate(-121.14 -200.3)" fill="#231f20"/><path d="M249.13,515.76l-3.4.17a.74.74,0,0,0-.71.77l1.08,22.47a1.32,1.32,0,0,1-1.41,1.55l-1.92.09a1.31,1.31,0,0,1-1.55-1.41l-1.08-22.47a.74.74,0,0,0-.77-.7l-3.55.17a.74.74,0,0,0-.7.77l1.12,23.51c.17,3.47,2.11,5.23,5.58,5.07l4.14-.2c3.47-.17,5.23-2.11,5.07-5.58l-1.13-23.5A.74.74,0,0,0,249.13,515.76Z" transform="translate(-121.14 -200.3)" fill="#231f20"/><path d="M268.55,539.82l-8.8.28L259,516a.52.52,0,0,0-.61-.57l-3.84.12a.55.55,0,0,0-.58.61l.93,28.41a.53.53,0,0,0,.61.57l13.24-.43c.41,0,.59-.2.57-.61l-.12-3.7A.52.52,0,0,0,268.55,539.82Z" transform="translate(-121.14 -200.3)" fill="#231f20"/><path d="M282.06,514.81l-13.61.29a.55.55,0,0,0-.58.6l.08,3.7a.55.55,0,0,0,.61.58l4.29-.09.52,24.12a.52.52,0,0,0,.6.57l3.85-.08a.52.52,0,0,0,.58-.6l-.52-24.12,4.29-.09a.52.52,0,0,0,.58-.6l-.08-3.7A.53.53,0,0,0,282.06,514.81Z" transform="translate(-121.14 -200.3)" fill="#231f20"/><path d="M290.3,514.71l-3.85,0a.52.52,0,0,0-.58.6l.32,28.42a.53.53,0,0,0,.6.58l3.85,0a.55.55,0,0,0,.59-.6l-.33-28.42A.54.54,0,0,0,290.3,514.71Z" transform="translate(-121.14 -200.3)" fill="#231f20"/><path d="M315.21,514.64h-4.89a.77.77,0,0,0-.81.67l-4.12,18.42-4.1-18.43a.76.76,0,0,0-.81-.67H295.6a.67.67,0,0,0-.74.74l0,28.12a.67.67,0,0,0,.74.74H299a.67.67,0,0,0,.74-.74V526.84H300l3.65,16.73a.77.77,0,0,0,.81.67h1.82a.77.77,0,0,0,.81-.67l3.68-16.72H311l0,16.65a.67.67,0,0,0,.74.74h3.44a.67.67,0,0,0,.74-.74l0-28.13A.67.67,0,0,0,315.21,514.64Z" transform="translate(-121.14 -200.3)" fill="#231f20"/><path d="M331.53,515.44a.58.58,0,0,0-.62-.53l-5.14-.09a.57.57,0,0,0-.64.5l-6.65,28.33c-.12.41.06.63.47.64l3.95.07a.56.56,0,0,0,.6-.5l1.1-5.39,6.58.12.94,5.42a.56.56,0,0,0,.59.53l3.91.07c.45,0,.6-.21.53-.62ZM325.6,534.2l2.61-12.87,2.13,13Z" transform="translate(-121.14 -200.3)" fill="#231f20"/><path d="M351.81,515.47l-13.61-.42a.54.54,0,0,0-.61.57l-.11,3.7a.54.54,0,0,0,.57.61l4.29.13-.75,24.12a.54.54,0,0,0,.58.61l3.84.12a.52.52,0,0,0,.61-.58l.75-24.11,4.29.13a.52.52,0,0,0,.61-.57l.11-3.7A.52.52,0,0,0,351.81,515.47Z" transform="translate(-121.14 -200.3)" fill="#231f20"/><path d="M369.48,516.25l-13.6-.62a.53.53,0,0,0-.58.57L354,544.58a.52.52,0,0,0,.53.61l13.59.62c.45,0,.61-.19.62-.56l.17-3.7c0-.4-.12-.6-.56-.62l-9.24-.42.34-7.46,7.06.32a.55.55,0,0,0,.61-.6l.17-3.66a.54.54,0,0,0-.56-.65l-7.06-.33.34-7.39,9.23.42c.45,0,.61-.23.62-.6l.17-3.69A.51.51,0,0,0,369.48,516.25Z" transform="translate(-121.14 -200.3)" fill="#231f20"/></svg>