<svg version="1" xmlns="http://www.w3.org/2000/svg" width="1333.333" height="1333.333" viewBox="0 0 1000.000000 1000.000000"><path d="M340.2 136.1c-2.3 1.2-5.1 3.4-6.3 5-2.1 3.1-9.5 18.3-35.4 72.9-4.5 9.6-11.1 23.3-14.5 30.5-3.4 7.1-7.5 15.7-9 19-1.5 3.3-6 12.7-10.1 21-4 8.2-7.3 15.2-7.4 15.5 0 .3-1.8 4.1-3.9 8.5-6.9 14.6-6.7 15.9 3.6 37.5 3.6 7.4 8.9 18.4 11.8 24.5 2.8 6 7 14.8 9.2 19.5 2.3 4.7 6.4 13.4 9.3 19.5 2.9 6 7.6 15.9 10.5 22 2.9 6 7.5 15.6 10.1 21.2 9.6 20.2 14.7 31 20.9 43.8 3.4 7.1 8.4 17.5 11 23 7.4 15.5 13.8 28.9 19.8 41.5 3 6.3 7.6 16 10.2 21.5 2.6 5.5 7.8 16.3 11.5 24 3.7 7.7 7.8 16.5 9.2 19.5 1.4 3 6.6 13.8 11.4 23.9 4.9 10.1 8.9 18.5 8.9 18.6 0 .2 3.5 7.7 7.9 16.7 4.3 8.9 9.6 20.1 11.9 24.8 5.6 12 14.1 29.7 20 42 2.7 5.8 7.4 15.4 10.2 21.5 2.9 6 7.8 16.4 11 23 3.1 6.6 7.5 15.8 9.8 20.5 20.7 43.5 20.8 43.7 27.5 46.5 3.1 1.3 15.2 1.5 89.2 1.5 83.5 0 85.7 0 89.5-2 6.9-3.5 11.7-12.5 10.7-19.9-.2-2-3-9-6.2-15.6-3.1-6.6-7.9-16.5-10.5-22-4.5-9.3-29.9-62.7-41.2-86.5-2.8-5.8-6.9-14.6-9.3-19.5-2.3-5-6.9-14.6-10.2-21.5-3.4-6.9-8.2-17-10.8-22.5-5.9-12.5-12.6-26.5-20-42-3.1-6.6-7.9-16.5-10.5-22-6.7-14-13.7-28.7-21.5-45-3.7-7.7-8.2-17.2-10-21-1.8-3.9-6.7-14.1-10.9-22.8-4.2-8.7-7.6-16-7.6-16.2 0-.1-4.1-8.6-9-18.9-5-10.3-10.8-22.4-12.9-26.9-4.4-9.2-12-25.4-20.6-43.2-3.1-6.6-7.4-15.6-9.5-20-2.1-4.4-8.7-18.4-14.7-31-6.1-12.7-13.1-27.3-15.6-32.5-2.4-5.2-7.3-15.4-10.7-22.5-3.4-7.2-7.9-16.6-10-21-2.1-4.4-6.8-14.3-10.5-22-6.4-13.2-9.9-20.6-21-44-32.5-68.3-30.6-65-37.7-68.6-5-2.5-12.2-2.5-17.6.2zM486.2 136.1c-7.6 3.8-12 13.6-9.9 21.7.4 1.8 4 9.9 7.8 18 3.9 8.1 8.4 17.4 9.9 20.7 1.5 3.3 6.2 13.2 10.5 22 4.2 8.8 9.3 19.4 11.2 23.5 3.8 7.9 16.8 35.1 19.7 41 2 4.1 6.4 7.8 11.1 9.5 2.5.8 27.4 1 93.2.9 55-.1 92.3.2 96.3.8 16.3 2.4 31.1 9.6 43 20.9 8.7 8.3 17.1 22.9 19.6 34.4 2.2 10.2 2.5 23.1.6 32-2.5 12.4-9.4 26.4-17.2 34.9-9.3 10.2-25 19.5-37.2 22.2-.5.1-.9.2-1 .4-.4.2-3.6.8-9.3 1.6-2.7.4-25.9.8-51.5.8l-46.5.1-4 2.3c-6.7 3.8-10.6 11.2-10.1 18.9.3 3.9 5.1 14.7 27.6 61.8 3.4 7.1 7.7 16.1 9.5 20 1.8 3.8 5.8 12.4 9 19 3.1 6.6 8.8 18.5 12.5 26.5 3.7 8 9.4 19.9 12.5 26.5 3.2 6.6 7 14.7 8.5 18 3.4 7.3 7.4 15.8 26.5 56 8.1 17 15.5 32.8 16.5 35 1 2.2 5.2 11.1 9.4 19.9 4.2 8.7 7.6 15.9 7.6 16.1 0 .1 3.3 7.2 7.4 15.6 4 8.5 8.7 18.3 10.4 21.9 3 6.6 7.9 16.8 19.1 40.4 3.3 7 6.1 13.1 6.1 13.5 0 1.7 6.6 8.4 10.1 10.2 3.8 1.9 5.7 1.9 88.2 1.7l84.2-.3 4.2-3.4c2.3-1.8 5-5 5.9-7 2.2-4.6 2.6-12 .8-15.7-8.3-18-12.4-26.7-26.1-55.4-3.1-6.3-7.5-15.6-9.8-20.5-2.4-5-7.3-15.3-11-23-3.7-7.7-8.3-17.4-10.2-21.5-2-4.1-7.1-14.9-11.4-23.9-4.4-9-7.9-16.5-7.9-16.6 0-.2-4.7-10-10.5-22-5.8-11.9-10.5-21.8-10.5-22 0-.1-4.8-10.1-10.6-22.1-21.2-43.8-21.8-45.5-17-54.4 1.9-3.7 4.6-6 14.6-12.7 55.8-37.5 88.7-92.5 93.7-156.8 3-39.4-2.9-77.8-17.6-112.7-3.6-8.5-6.8-15.1-13.4-26.8-2.4-4.3-13.2-20.4-15.7-23.4-1-1.1-3.5-4.1-5.5-6.6-13.3-16.3-35.9-35.6-55.4-47.4-17.5-10.6-47.2-23.2-64.1-27.1-.8-.2-5.3-1.2-10-2.3-7.4-1.8-14-2.9-33-5.9-2.5-.4-65.7-.8-140.5-1l-136-.3-4.3 2.1zM82.2 677.6l-5.3 2.6-8.9 18.2c-4.8 9.9-10.7 22.1-13 27.1-2.4 4.9-6.4 13.5-9 19-6.5 13.6-13.4 28.3-18.2 38.5-2.2 4.7-7 14.6-10.5 22C3.3 834.3.7 840.4.5 844.4c-.4 7.9 3.8 15.1 10.9 18.5 4.2 2.1 5.6 2.1 80.7 2.1h76.4l4-2.3c2.2-1.2 5.4-4.4 7.2-7 2.7-4.1 3.1-5.5 3-10.5-.2-4.7-1.3-7.9-6.5-18.5-3.4-7.1-6.2-13-6.2-13.2 0-.2-3.6-7.9-8.1-17.1-4.5-9.3-9.4-19.7-11-23.2-3-6.4-7.2-15.2-17.4-36.7-3.2-6.6-7-14.7-8.5-18-1.5-3.3-6.2-13.1-10.4-21.7-6.6-13.8-8.1-16.1-11.7-18.5-6.1-4-13.7-4.3-20.7-.7z"/></svg>