<svg id="Layer_1" data-name="Layer 1" xmlns="http://www.w3.org/2000/svg" width="233.3" height="152.18" viewBox="0 0 233.3 152.18">
  <path d="M321,437.24l14.57-30.9c4.36-8.89,12.18-12.18,18.29-13.25-6.26.8-15,3.88-19.71,13.46L320.3,435.89Z" transform="translate(-189.32 -319.57)" fill="#000"/>
  <path d="M371,427.78c.07.2.15.4.23.6A16.7,16.7,0,0,0,376,423.9a18.78,18.78,0,0,0,2.91-11,21.47,21.47,0,0,0-7.28-14.8A20.27,20.27,0,0,0,359,393.93a28,28,0,0,0-4.91.43,29.87,29.87,0,0,1,3.5-.22c11.43-.09,20.15,9.05,20.15,18.87A17.1,17.1,0,0,1,371,427.78Z" transform="translate(-189.32 -319.57)" fill="#000"/>
  <path d="M364.85,431.92a10.37,10.37,0,0,0,1.75-.39l-6.09-17.62c-.26-.77-.52-.77-.77,0l-.35,1,5.43,15.58a2.43,2.43,0,0,1-.41.14C364.59,431.15,364.85,431.92,364.85,431.92Z" transform="translate(-189.32 -319.57)" fill="#000"/>
  <path d="M408.9,407.26a14,14,0,0,1,2.51.25c1.59.41,1.95,1.54,2,4.87l.52,22.8c.62.67,1.12,1.2,1.46,1.55l-.57-24.57c-.05-3.33-.41-4.45-2-4.86a13.27,13.27,0,0,0-2.51-.26c-.35,0-.41-.15-.41-.36a.24.24,0,0,1,.05-.14h-.43c-.62,0-1,0-1,.36S408.54,407.26,408.9,407.26Z" transform="translate(-189.32 -319.57)" fill="#000"/>
  <path d="M360.55,405.92a1.14,1.14,0,0,0-1-.1c-.31,0-.52.31-1.13,2l-7.25,19.62c.35.25.71.48,1.07.69l7.59-20.53A11.52,11.52,0,0,1,360.55,405.92Z" transform="translate(-189.32 -319.57)" fill="#000"/>
  <path d="M381.23,444.32a7.71,7.71,0,0,0,1.63-.29c1.28-.36,1.53-1.85,1.53-6.51l.05-29.35a5,5,0,0,1,.38-2.58.37.37,0,0,0-.14,0c-.2,0-.64-.25-1,0s-.68.94-.64,2.85l0,29.36c0,4.66-.25,6.14-1.53,6.5l-.26.08Z" transform="translate(-189.32 -319.57)" fill="#000"/>
  <path d="M348.21,439.42l3.53-9.65c-1.53-.94-3.6-1.58-4.81-2.89a2.38,2.38,0,0,1,.49-1.38c-.15-.19-.3-.39-.45-.61a2.69,2.69,0,0,0-1.45,2.2,22.31,22.31,0,0,0,4.66,3.3l-3.38,9.24c-.73,2-1.53,3.67-3,4.42l.52.11C346.39,443.68,347.35,441.82,348.21,439.42Z" transform="translate(-189.32 -319.57)" fill="#000"/>
  <path d="M413.54,442.13c-.56-.51-7.94-8-13.37-13.88-5.94-6.41-11.73-12.86-13.37-14.7l.05,1.85c2.51,2.8,7.16,7.94,11.91,13.06,5.43,5.84,12.81,13.37,13.37,13.89,2.72,2.71,3.33,3.27,3.74,3.27.21,0,.33-.09.4-.84C415.72,444.3,414.89,443.48,413.54,442.13Z" transform="translate(-189.32 -319.57)" fill="#000"/>
  <path d="M386.08,444.9c-.46,0-2.61.15-4.91.15-.52,0-5.75-.09-9.29-.19-1-.05-1.53-.05-1.53-.36s.15-.31.36-.36.61-.56.3-1.38l-4.19-11.2a18.81,18.81,0,0,1-4.91,1,19.66,19.66,0,0,1-7.87-1.65l-.31.91A20,20,0,0,0,360.5,433a19.69,19.69,0,0,0,5-.87L369.6,443c.31.82,0,1.28-.3,1.39s-.36.15-.36.35.56.31,1.53.36c3.54.11,8.77.2,9.29.2,2.3,0,4.45-.16,4.91-.16s2.51.16,5.43.16c.46,0,.75-.06.87-.22C388.34,445,386.52,444.9,386.08,444.9Z" transform="translate(-189.32 -319.57)" fill="#000"/>
  <path d="M419.74,407.19l-.24.07h.06a.73.73,0,0,0,.43-.12Z" transform="translate(-189.32 -319.57)" fill="#000"/>
  <path d="M300.85,444.81c-.46,0-2.92.15-4.3.15-.51,0-.87-.1-.87-.46a.18.18,0,0,1,0-.09,6.58,6.58,0,0,1-.94,0c-.25,0-.51.1-.51.25,0,.36.36.47.87.47,1.38,0,3.84-.16,4.3-.16s2.87.16,4.77.16c.44,0,.72-.06.85-.22C303.27,444.93,301.22,444.81,300.85,444.81Z" transform="translate(-189.32 -319.57)" fill="#000"/>
  <path d="M297.73,444.09c1.69-.31,1.84-2.3,2-4.25l3.69-33.4a2.9,2.9,0,0,1,.15-.57,2.92,2.92,0,0,0-1-.14c-.31,0-.46.36-.56.92l-3.69,33.4c-.2,1.85-.35,3.73-1.79,4.19A6.42,6.42,0,0,0,297.73,444.09Z" transform="translate(-189.32 -319.57)" fill="#000"/>
  <path d="M348.68,444.81c-.29,0-3.59.15-4.15.13s-6.29-.2-7.31-.29c-1.17-.1-1.43-.25-1.43-.51s.1-.31.36-.36.31-.92.2-1.84l-2.45-26.43h-.16l-1.06,2.26,2.26,24.38c.11.93.06,1.8-.2,1.85s-.36.15-.36.36.26.41,1.43.51c1,.08,6.76.3,7.31.29s3.86-.14,4.15-.14c.56,0,2.77.16,4,.16.36,0,.62-.06.72-.23C350.75,444.91,349.15,444.81,348.68,444.81Z" transform="translate(-189.32 -319.57)" fill="#000"/>
  <path d="M317.91,442.5c-1.33-2.51-5.73-11.37-6-11.88-.46-.92-6.2-13.22-6.76-14.6H305l-.21,2.44c1.82,4,5.41,11.65,5.77,12.37.26.51,4.66,9.38,6,11.89,1,1.84,1.23,2.35,1.59,2.35s.45-.17.78-.81C318.64,443.9,318.35,443.34,317.91,442.5Z" transform="translate(-189.32 -319.57)" fill="#000"/>
  <path d="M386.17,405.32c-.38.23-.69.94-.64,2.85l0,29.35c0,4.66-.26,6.15-1.54,6.51a7.71,7.71,0,0,1-1.63.29,6.52,6.52,0,0,1-1.79-.38c-1.07-.31-2.56-1.13-4.4-5.69-.83-2.05-2.19-5.52-3.46-8.83a18.51,18.51,0,0,0,8.71-16.71,21.38,21.38,0,0,0-21.32-20.08c-5.92,0-17.67,2-23.43,13.71l-14.56,30.9-15.44-31.16c-.25-.57-1.2-.56-1.51-.56s-.46.36-.56.92l-3.69,33.4c-.2,2-.36,3.94-2.05,4.25a6.73,6.73,0,0,1-1.54.15c-.25,0-.51.11-.51.26,0,.36.36.46.87.46,1.39,0,3.85-.15,4.31-.15s2.87.15,4.76.15c.62,0,.92-.1.92-.46,0-.15-.2-.26-.41-.26a9.67,9.67,0,0,1-1.94-.25,1.65,1.65,0,0,1-1.34-1.59c0-.87,0-1.79.06-2.61L306,416h.21c.56,1.38,6.3,13.68,6.76,14.6.26.51,4.66,9.37,6,11.88,1,1.85,1.22,2.36,1.58,2.36s.62-.46,1.69-2.72l12.55-26.63H335l2.46,26.43c.1.92.05,1.79-.21,1.84s-.36.16-.36.36.26.41,1.44.51c1,.09,6.76.3,7.3.29s3.86-.13,4.15-.13c.56,0,2.77.15,4,.15.46,0,.77-.1.77-.41s-.16-.31-.52-.31h-.51c-.87,0-1.95-.46-1.95-1.48a10.86,10.86,0,0,1,.72-3.43l2.85-8.41a19.61,19.61,0,0,0,12.88,1l4.1,10.84c.3.82,0,1.28-.31,1.38s-.36.16-.36.36.56.31,1.54.36c3.53.1,8.77.19,9.28.19,2.3,0,4.46-.15,4.92-.15s2.51.15,5.43.15c.61,0,.92-.1.92-.41s-.16-.31-.41-.31a11.47,11.47,0,0,1-2.56-.3c-1.39-.41-1.9-1.74-2-5.95l-.67-24.53c1.64,1.84,7.43,8.29,13.37,14.7,5.43,5.84,12.81,13.37,13.37,13.88,2.72,2.72,3.33,3.28,3.74,3.28s.46-.26.46-3.64l.11-30c0-3.07.2-4.2,1.89-4.56a4.63,4.63,0,0,1,1.23-.15c.36,0,.56-.15.56-.36s-.35-.36-.92-.36c-2.1,0-3.79.16-4.35.16s-3-.16-5.33-.16c-.61,0-1,.06-1,.36s.05.36.41.36a13.35,13.35,0,0,1,2.51.26c1.58.41,1.94,1.53,2,4.86l.57,24.57c-1.64-1.69-7.23-7.94-12.3-13.37-7.89-8.46-14.43-15.52-15.2-16.39-.51-.51-1.38-1.64-1.79-1.64-.21,0-.64-.24-1,0m-21.94,2.13c-1.11-2.49-1.87-1.84-2.18-1.84s-.51.3-1.13,2l-7.59,20.53a11.65,11.65,0,0,1-3.86-3.45,2.67,2.67,0,0,0-1.45,2.2c1.21,1.31,3.28,1.95,4.8,2.89l-3.53,9.65c-.86,2.4-1.82,4.26-3.87,4.74a9.63,9.63,0,0,1-1.18-.29c-2.2-.71-2.56-3.58-2.76-5.43l-2.77-25.37c0-2.6-.14-4.88.67-6.75,2.14-5.09,8.37-12.36,20.71-12.39,11.44-.1,20.16,9,20.16,18.86a17.09,17.09,0,0,1-8,15.59C368.77,419.29,364.83,408.81,364.23,407.45Zm-8.55,22.07,5.14-15.61c.26-.77.51-.77.77,0l5.89,16.92C365.69,431.55,359.6,431.66,355.68,429.52Z" transform="translate(-189.32 -319.57)" fill="#000"/>
  <path d="M190.11,402c0-1.13,1.33-7.53,1.47-8.09a2.2,2.2,0,0,1,.53-1.22,1.35,1.35,0,0,0-.47-.12c-.42,0-.63.42-.84,1.34-.15.56-1.48,7-1.48,8.09,0,.77.14,1.12.63,1.12a.56.56,0,0,0,.39-.14A1.37,1.37,0,0,1,190.11,402Z" transform="translate(-189.32 -319.57)" fill="#000"/>
  <path d="M210.92,439.47c.32-3,.35-8.51.35-15V397.54h-.79v26.94c0,6.47,0,12-.35,15a4,4,0,0,1-3.55,3.86l-.46.1a12.16,12.16,0,0,0,1.24-.21A3.84,3.84,0,0,0,210.92,439.47Z" transform="translate(-189.32 -319.57)" fill="#000"/>
  <path d="M231.32,393.65a20,20,0,0,1-2.59.16h.79A10.19,10.19,0,0,0,231.32,393.65Z" transform="translate(-189.32 -319.57)" fill="#000"/>
  <path d="M217.23,397.54h0l8.83.2h.78Z" transform="translate(-189.32 -319.57)" fill="#000"/>
  <path d="M203.71,444.18a.61.61,0,0,1,.42-.57H204c-.84,0-1.12.21-1.12.56s.49.7,1.41.7H205C204.16,444.86,203.71,444.65,203.71,444.18Z" transform="translate(-189.32 -319.57)" fill="#000"/>
  <path d="M236.26,401.63l-.53-1.18c-1.38-2.38-2.9-2.72-8.61-2.7,5.07,0,6.5.43,7.82,2.7l.53,1.18c.22,1.1.81,1.65,1.05,1.59a.82.82,0,0,0,.39-.21A2.68,2.68,0,0,1,236.26,401.63Z" transform="translate(-189.32 -319.57)" fill="#000"/>
  <path d="M231.67,409.79l-.1,30.87c-.2,1.49-.46,3-1.48,3.23l-.22,0a7.62,7.62,0,0,0,1.5-.2c1-.21,1.28-1.74,1.49-3.23l.1-30.87a2.65,2.65,0,0,0-2.62-2.64c-2.34,0-2.31-.59-2.12-.89l-1.12,0s-1.26,1,2,1.07A2.65,2.65,0,0,1,231.67,409.79Z" transform="translate(-189.32 -319.57)" fill="#000"/>
  <path d="M245.51,425.86a5.21,5.21,0,0,1-1.91.79,6,6,0,0,0,3.19-.95c1.8-1.23,3.13-4,3.13-7.89,0-6.4-3.11-10-8.59-10a18.31,18.31,0,0,0-3,0,.77.77,0,0,0-.18.1c.49,0,1.1.06,1.86.06,5.49,0,8.59,3.58,8.59,10C248.63,421.86,247.3,424.63,245.51,425.86Z" transform="translate(-189.32 -319.57)" fill="#000"/>
  <path d="M268.77,449.48a19.28,19.28,0,0,1-7.23-2.61c-2.21-1.18-5.82-4-11.42-10.72-2.27-2.72-5-6.26-6.07-7.59a.79.79,0,0,0-.66-.31l-5-.16a.32.32,0,0,0-.32.19l4.06.13a.81.81,0,0,1,.67.31c1,1.33,3.79,4.87,6.07,7.59,5.6,6.69,9.21,9.54,11.41,10.72a19.35,19.35,0,0,0,7.24,2.61l4.5.36a1.16,1.16,0,0,0,.81-.2Z" transform="translate(-189.32 -319.57)" fill="#000"/>
  <path d="M235.06,444.5c-.05,0-3.28.15-4.81.15-.57,0-.82-.1-.82-.41a.28.28,0,0,1,.17-.26,6.82,6.82,0,0,1-1,.11c-.3,0-.41.16-.41.31,0,.31.26.41.82.41,1.54,0,4.77-.15,4.82-.15.25,0,4.27.09,7.08.09a1.16,1.16,0,0,0,.7-.16C238.8,444.58,235.3,444.5,235.06,444.5Z" transform="translate(-189.32 -319.57)" fill="#000"/>
  <path d="M285.08,407a9.83,9.83,0,0,1,1.75.15c1.69.36,2.1,1.18,2.2,2.92s.1,3.08.1,11.07v6.4c0,5.28-.61,9.63-3,12.55a10.73,10.73,0,0,1-6,3.49,10.73,10.73,0,0,0,7.15-3.65c2.36-2.92,3-7.27,3-12.55V421c0-8,0-9.43-.1-11.06s-.51-2.57-2.2-2.92a9,9,0,0,0-1.75-.16c-.2,0-.41-.1-.41-.31a.33.33,0,0,1,.1-.24h-.39c-.56,0-.82.11-.82.41S284.88,407,285.08,407Z" transform="translate(-189.32 -319.57)" fill="#000"/>
  <path d="M270.65,407.05h.23a.54.54,0,0,0,.28-.08l-.46.08Z" transform="translate(-189.32 -319.57)" fill="#000"/>
  <path d="M295.46,407h.18a.55.55,0,0,0,.31-.1A4.27,4.27,0,0,0,295.46,407Z" transform="translate(-189.32 -319.57)" fill="#000"/>
  <path d="M278.2,445.61c-1.74,0-6.91-.21-10.55-3.64-2.51-2.41-4.46-6-4.46-13.47V421c0-8,0-9.43-.1-11.06s-.51-2.57-2.2-2.92a8.94,8.94,0,0,0-1.74-.16c-.21,0-.41-.1-.41-.31a.32.32,0,0,1,.09-.24h-.38c-.57,0-.82.11-.82.41s.2.31.41.31a9.8,9.8,0,0,1,1.74.15c1.69.36,2.1,1.18,2.2,2.92s.1,3.08.1,11.07v7.48c0,7.48,1.95,11.06,4.46,13.47,3.64,3.43,8.81,3.64,10.55,3.64a18.34,18.34,0,0,0,3.36-.28A19.77,19.77,0,0,1,278.2,445.61Z" transform="translate(-189.32 -319.57)" fill="#000"/>
  <polygon points="232.2 128.95 232.2 130.82 88.89 130.82 90.26 128.95 232.2 128.95" fill="#000"/>
  <path d="M212.37,397.54l-11.74.28c-4.08.14-5.77.49-6.82,2a8,8,0,0,0-1.2,2.46c-.14.56-.35.84-.77.84s-.63-.35-.63-1.12c0-1.13,1.33-7.53,1.47-8.09.21-.92.42-1.34.85-1.34s1.26.71,3,.85c2,.21,4.71.35,7,.35h27c4.5,0,5.38-1.14,5.94-1.14s.76.75.88,1.8c.18,1.45.4,2.42,1.5,7.65.14.69-.12,1-.53,1.1-.25.06-.83-.49-1-1.59l-.53-1.18c-1.41-2.42-3-2.73-8.89-2.7l-9.61-.21v26.95c0,6.47,0,12,.35,15.05.21,2,.63,3.51,2.74,3.79a29.64,29.64,0,0,0,3.59.29c.77,0,1.12.21,1.12.56s-.56.7-1.33.7c-4.65,0-7.56-.21-9.53-.21-1.62,0-6.25.21-9.06.21-.91,0-1.4-.21-1.4-.7s.28-.56,1.12-.56a11.36,11.36,0,0,0,2.53-.29,4,4,0,0,0,3.56-3.86c.32-3,.35-8.51.35-15Z" transform="translate(-189.32 -319.57)" fill="#000"/>
  <path d="M229.22,406.08c1.54.09,11.34,0,12.93,0,3.23,0,7.44.35,10.15,2.3a9.14,9.14,0,0,1,3.54,7c.1,4.84-2.15,7.86-6.76,12.11,4.2,5.38,7.5,9.6,10.44,12.8,6.77,7.37,10.21,8.09,13.09,8.64,1,.18,1.91.4,2.22.4s.24-.09.24.06c0,.31,0,.65-.95.65l-4.51-.36a19.28,19.28,0,0,1-7.23-2.61c-2.21-1.18-5.82-4-11.42-10.72-2.27-2.72-5-6.26-6.07-7.59a.79.79,0,0,0-.66-.31l-5-.16c-.26,0-.36.16-.36.41v1.23c0,4.92,0,9,.25,11.12.16,1.48.47,2.61,2,2.82a23.05,23.05,0,0,0,2.31.2c.3,0,.41.16.41.31s-.26.41-.82.41c-2.82,0-6.83-.09-7.09-.09-.05,0-3.28.15-4.81.15-.57,0-.82-.1-.82-.41,0-.15.1-.31.41-.31a8,8,0,0,0,1.53-.2c1-.21,1.28-1.74,1.49-3.23l.1-30.87a2.65,2.65,0,0,0-2.62-2.64C228,407.1,229.22,406.08,229.22,406.08Zm9.57,19.27a.66.66,0,0,0,.36.61,9.88,9.88,0,0,0,4.64.87,6.6,6.6,0,0,0,3.84-1c1.8-1.23,3.13-4,3.13-7.89,0-6.41-3.11-10-8.59-10a18.31,18.31,0,0,0-3,0,.61.61,0,0,0-.41.61Z" transform="translate(-189.32 -319.57)" fill="#000"/>
  <path d="M264,421.18c0-8,0-9.43-.1-11.07s-.51-2.56-2.2-2.92A9.8,9.8,0,0,0,260,407c-.21,0-.41-.1-.41-.31s.25-.41.82-.41c2.3,0,5.43.16,5.89.16s4.59-.16,6.13-.16c.56,0,.81.11.81.41s-.2.31-.4.31a7.93,7.93,0,0,0-1.29.15c-1.38.21-1.79,1.13-1.89,2.92-.1,1.64-.1,3.08-.1,11.07v7.17c0,7.38,1.64,10.55,3.84,12.65,2.51,2.36,3.76,2.82,6.68,2.82a10.73,10.73,0,0,0,8-3.69c2.36-2.92,3-7.27,3-12.55v-6.4c0-8,0-9.43-.1-11.07s-.51-2.56-2.2-2.92A9.83,9.83,0,0,0,287,407c-.2,0-.41-.1-.41-.31s.26-.41.82-.41c2.31,0,5.13.16,5.43.16s2.77-.16,4.31-.16c.56,0,.82.11.82.41s-.21.31-.41.31a4.53,4.53,0,0,0-1.28.15c-1.39.26-1.8,1.13-1.9,2.92-.1,1.64-.1,3.08-.1,11.07v5.48c0,5.53-.62,11.68-4.71,15.32A15,15,0,0,1,279,445.77c-1.74,0-6.91-.21-10.55-3.64-2.51-2.41-4.46-6-4.46-13.47Z" transform="translate(-189.32 -319.57)" fill="#000"/>
  <polygon points="68.06 80.99 52.57 81 53.1 82.87 68.06 82.87 68.06 80.99" fill="#000"/>
  <path d="M299.76,402.46h33.3c.48-.64.89-1.21,1.4-2H299.74Z" transform="translate(-189.32 -319.57)" fill="#000"/>
  <path d="M380.31,400.5c.51.79,1.06,1.38,1.49,2h39.39v-2Z" transform="translate(-189.32 -319.57)" fill="#000"/>
  <path d="M258.46,448.64l0,0H191.05v1.78h70.57A27.29,27.29,0,0,0,258.46,448.64Z" transform="translate(-189.32 -319.57)" fill="#000"/>
  <polygon points="72.81 47.23 80.19 41.72 92.99 40.71 103.85 44.78 105.4 48.03 104.37 48.81 103.21 46.4 92.22 42.27 80.47 43.38 80.76 44.35 92.16 43.29 101.91 47.06 101.91 47.62 92.04 43.81 80.94 44.82 81.2 45.86 92.19 44.93 101.65 48.66 101.65 49.3 92.19 45.57 81.22 46.51 73.85 52.09 73.85 50.92 74.33 50.53 72.81 47.23" fill="#000"/>
  <polygon points="71.7 47.13 79.67 41.08 92.99 39.93 103.59 43.87 103.59 42.97 92.99 39.03 79.28 40.04 71.69 45.75 71.7 47.13" fill="#000"/>
  <polygon points="94.02 48.5 94.02 47.73 100.41 50.35 100.41 51.78 100.04 50.96 94.02 48.5" fill="#000"/>
  <path d="M273.82,370.78s2.4-3.88,5.56-.18h-.71S276.88,368.23,273.82,370.78Z" transform="translate(-189.32 -319.57)" fill="#000"/>
  <path d="M283.86,370.75s4.9-2.77,5.43,3v13.71l-.6-.25-.05-13.33S288.36,369.09,283.86,370.75Z" transform="translate(-189.32 -319.57)" fill="#000"/>
  <path d="M274,374.15s-.43-3.52,2.72-3.66c0,0,1.73-.07,1.87,3.27Z" transform="translate(-189.32 -319.57)" fill="#000"/>
  <polygon points="84.69 58.44 84.69 55.43 89.24 55.08 89.24 58 84.69 58.44" fill="#000"/>
  <polygon points="84.69 62.4 84.69 59.38 89.24 59.03 89.24 61.95 84.69 62.4" fill="#000"/>
  <polygon points="84.69 66.52 84.69 63.32 89.24 62.97 89.24 66.07 84.69 66.52" fill="#000"/>
  <path d="M283.86,374.24s-.63-3.07,1.94-2.85c0,0,1.95.25,1.68,4Z" transform="translate(-189.32 -319.57)" fill="#000"/>
  <polygon points="94.54 55.58 94.54 58.42 98.03 59.52 98.03 56.61 94.54 55.58" fill="#000"/>
  <polygon points="94.54 59.46 94.54 62.3 98.03 63.39 98.03 60.49 94.54 59.46" fill="#000"/>
  <polygon points="94.54 63.21 94.54 66.05 98.03 67.14 98.03 64.24 94.54 63.21" fill="#000"/>
  <polygon points="76.05 75.97 76.05 73.87 74.26 73.55 74.24 72.64 75.27 72.8 80.24 69.62 80.24 73.91 76.05 75.97" fill="#000"/>
  <polygon points="83.29 68.44 91.05 67.6 91.05 72.52 90.68 72.56 90.68 68.65 83.31 69.48 83.29 68.44" fill="#000"/>
  <polygon points="94.65 67.9 100.49 69.8 100.49 74.06 100.18 73.93 100.18 70.66 94.65 68.88 94.65 67.9" fill="#000"/>
  <polygon points="101.32 77.29 92.16 74.97 81.42 76.01 81.42 80.02 75.27 80.05 75.27 77.69 81.29 74.72 92.28 73.81 101.4 76.18 103.34 78.01 103.34 79.22 101.32 77.29" fill="#000"/>
  <polygon points="82.77 76.93 90.79 76.28 90.79 79.24 90.33 79.24 90.33 77.4 82.77 78.04 82.77 76.93" fill="#000"/>
  <polygon points="93.74 76.56 100.1 78.1 100.12 79.26 99.67 79.27 99.69 78.74 93.74 77.39 93.74 76.56" fill="#000"/>
  <rect x="71.55" y="80.92" width="35.27" height="1.94" fill="#000"/>
  <polygon points="81.22 67.29 81.22 48.37 80.83 48.77 80.83 67.73 81.22 67.29" fill="#000"/>
  <polygon points="91.03 66.04 91.24 66.03 91.24 47.19 83.29 48.04 83.29 48.82 90.99 48.07 91.03 66.04" fill="#000"/>
  <path d="M267,386.07v-1l2.42-1.77v-2.94L267,382v-.92l2.25-1.6V376.7l-2.2,1.52v-.91l2.2-1.52,0-1.55c-.68-.73-1.85-.9-2.24,1,0,0-.13-3.1,2.2-2.71v-3.71l-4.44,3.43-.89-.3-.13,2.07.26.64.67.29v15.94l4.69-3.1v-3.35Z" transform="translate(-189.32 -319.57)" fill="#000"/>
  <path d="M280.88,351.12s1.3-1.42-.26-1.81l-2.06-.13s-1-.65,0-1c0,0,1.42.26.64-1.42l-.12-4.64a2.7,2.7,0,0,1,1.43-1.57v2.09h.95v-3.48l2.12,3.48h.81v-5.43h-1v3.32l-2.05-3.32h-.87v2.68a3.16,3.16,0,0,0-1.48.48l-.21-7.77a15.73,15.73,0,0,1,2.2,0V334a4.17,4.17,0,0,1,3.43-1.32,5.18,5.18,0,0,1-3.43-2v1.42a17,17,0,0,1-2.23-.39l-.13-4.91a2.18,2.18,0,0,0-.12-4.33l-.08-2.95-.24.13v2.81a2.19,2.19,0,0,0,0,4.37v4.73c-1.7-.48-3.25-1.22-3.25-2.12l-7.37-.72a2.72,2.72,0,0,0,2.06,2.49c-1.29-.12-2.06,1.32-2.06,2.1l7.37.72c0-.9,1.55-1.34,3.25-1.48l0,14s-1,.52-.65,1c0,0-2.2,1-1,1.81,0,0-2.46.13-1.17,1.81,0,0-.11,5.52-5,7.42l6.8-.59.66-7.48,1.7.11a14.37,14.37,0,0,0,5.06,6.78C283.49,356.84,281.4,353.16,280.88,351.12Zm-1.74-27.43a.74.74,0,1,1-.74.73A.74.74,0,0,1,279.14,323.69Z" transform="translate(-189.32 -319.57)" fill="#000"/>
  <polygon points="104.35 50.74 103.09 49.95 103.09 52.82 102.59 52.25 102.59 56.56 104.02 53.58 103.18 52.91 104.35 50.74" fill="#000"/>
  <path d="M191,471.34c-.26-.11-.3-.19-.3-.54,0-.86.06-1.81.08-2.06s.06-.41.18-.41.16.14.16.27a3.75,3.75,0,0,0,.14.8,2.17,2.17,0,0,0,2.26,1.59,1.92,1.92,0,0,0,2.11-1.79c0-.77-.24-1.5-1.55-2.52l-.72-.57c-1.73-1.35-2.33-2.45-2.33-3.73,0-1.73,1.45-3,3.63-3a7.62,7.62,0,0,1,2.1.27c.14,0,.22.08.22.19s-.06.66-.06,1.89c0,.35,0,.47-.18.47s-.15-.09-.15-.28a1.92,1.92,0,0,0-.41-1,2,2,0,0,0-1.72-.77,1.66,1.66,0,0,0-1.87,1.62c0,.72.36,1.28,1.67,2.27l.44.33c1.9,1.43,2.58,2.52,2.58,4a3.17,3.17,0,0,1-1.48,2.74,4.51,4.51,0,0,1-2.5.65A5.41,5.41,0,0,1,191,471.34Z" transform="translate(-189.32 -319.57)" fill="#000"/>
  <path d="M207.65,460.51l-2.35.06c-.91,0-1.29.11-1.53.46a1.83,1.83,0,0,0-.26.55c0,.12-.08.19-.18.19s-.14-.08-.14-.26.3-1.68.33-1.81.1-.3.19-.3a3.5,3.5,0,0,0,.68.19,15.39,15.39,0,0,0,1.57.08h6.24a7.58,7.58,0,0,0,1.08-.08,3.53,3.53,0,0,1,.43-.08c.11,0,.13.1.13.33s-.05,1.42-.05,1.83c0,.16,0,.25-.14.25s-.16-.08-.18-.31v-.18c0-.4-.46-.85-1.86-.88l-2,0V467c0,1.45,0,2.7.07,3.37.05.44.15.79.62.85a7,7,0,0,0,.8.07c.17,0,.25,0,.25.12s-.12.16-.3.16c-1,0-2,0-2.47,0s-1.35,0-2,0c-.21,0-.32,0-.32-.16s.07-.12.25-.12a2.59,2.59,0,0,0,.57-.07c.32-.06.41-.41.46-.86.08-.66.08-1.91.08-3.36Z" transform="translate(-189.32 -319.57)" fill="#000"/>
  <path d="M221.93,467.42c-.08,0-.11,0-.14.12l-.85,2.26a3,3,0,0,0-.24,1c0,.28.15.49.63.49h.24c.19,0,.24,0,.24.12s-.1.16-.27.16c-.51,0-1.18,0-1.67,0-.17,0-1,0-1.86,0-.2,0-.3,0-.3-.16s.06-.12.19-.12a3.89,3.89,0,0,0,.49,0c.72-.09,1-.63,1.34-1.41l4-9.89c.19-.46.28-.63.44-.63s.24.14.39.5c.38.87,2.9,7.29,3.91,9.69.6,1.41,1.05,1.63,1.39,1.71a3.23,3.23,0,0,0,.66.07c.12,0,.2,0,.2.12s-.14.16-.72.16-1.72,0-3,0c-.28,0-.47,0-.47-.13s.06-.12.22-.14a.25.25,0,0,0,.14-.36l-1.26-3.34a.15.15,0,0,0-.16-.11Zm3.21-.79c.08,0,.1-.05.08-.09l-1.41-3.89c0-.07,0-.14-.08-.14s-.08.07-.1.14l-1.45,3.87c0,.06,0,.11.07.11Z" transform="translate(-189.32 -319.57)" fill="#000"/>
  <path d="M239,460.51l-2.35.06c-.91,0-1.29.11-1.53.46a1.83,1.83,0,0,0-.26.55c0,.12-.08.19-.18.19s-.14-.08-.14-.26.3-1.68.33-1.81.1-.3.19-.3a3.5,3.5,0,0,0,.68.19,15.54,15.54,0,0,0,1.57.08h6.24a7.89,7.89,0,0,0,1.09-.08,3.19,3.19,0,0,1,.42-.08c.11,0,.13.1.13.33s-.05,1.42-.05,1.83c0,.16,0,.25-.14.25s-.16-.08-.18-.31v-.18c0-.4-.46-.85-1.86-.88l-2,0V467c0,1.45,0,2.7.08,3.37,0,.44.14.79.61.85a7,7,0,0,0,.8.07c.18,0,.25,0,.25.12s-.12.16-.3.16c-1,0-2,0-2.47,0s-1.35,0-2,0c-.21,0-.32,0-.32-.16s.07-.12.26-.12a2.57,2.57,0,0,0,.56-.07c.32-.06.41-.41.46-.86.08-.66.08-1.91.08-3.36Z" transform="translate(-189.32 -319.57)" fill="#000"/>
  <path d="M252.64,464.19c0-2.39,0-2.83,0-3.34s-.16-.79-.68-.89a2.57,2.57,0,0,0-.61,0c-.17,0-.27,0-.27-.14s.11-.15.35-.15c.83,0,1.83.05,2.27.05h3.93c.3,0,.55-.07.68-.1a1.14,1.14,0,0,1,.25-.06c.08,0,.1.06.1.14a10.27,10.27,0,0,0-.13,1c0,.16-.05.85-.08,1s-.05.18-.16.18-.14-.08-.14-.22a1.62,1.62,0,0,0-.09-.57c-.11-.28-.27-.47-1.06-.57-.26,0-1.92-.06-2.23-.06-.08,0-.11.05-.11.16v4c0,.11,0,.17.11.17.34,0,2.15,0,2.52,0a1.13,1.13,0,0,0,.75-.23c.11-.13.18-.21.25-.21s.11,0,.11.13-.06.34-.12,1.15c0,.31-.06.94-.06,1.05s0,.3-.15.3-.14-.06-.14-.14a3.16,3.16,0,0,0-.06-.57c-.08-.31-.3-.55-.88-.61-.3,0-1.86-.05-2.24-.05-.08,0-.09.06-.09.16V467c0,.54,0,2,0,2.44,0,1.09.28,1.33,1.89,1.33a4,4,0,0,0,1.48-.19c.41-.19.6-.52.71-1.17,0-.17.06-.23.17-.23s.12.12.12.28a12.32,12.32,0,0,1-.2,1.75c-.11.41-.25.41-.85.41-2.38,0-3.43-.1-4.36-.1-.36,0-1.36,0-2,0-.2,0-.31,0-.31-.16s.06-.12.25-.12a2.59,2.59,0,0,0,.57-.07c.31-.06.39-.41.45-.86.08-.66.08-1.91.08-3.36Z" transform="translate(-189.32 -319.57)" fill="#000"/>
  <path d="M275.77,464.19c0-2.39,0-2.83,0-3.34s-.16-.79-.68-.89a2.57,2.57,0,0,0-.61,0c-.17,0-.27,0-.27-.14s.11-.15.35-.15c.83,0,1.83.05,2.3.05s1.37-.05,1.94-.05c.23,0,.34,0,.34.15s-.09.14-.25.14a1.9,1.9,0,0,0-.46,0c-.42.07-.55.34-.58.89s0,.95,0,3.34v2.2c0,2.29.46,3.25,1.23,3.88a2.93,2.93,0,0,0,2,.65,3.09,3.09,0,0,0,2.17-.86c.86-.86.91-2.28.91-3.9v-2c0-2.39,0-2.83,0-3.34s-.16-.79-.68-.89a2.38,2.38,0,0,0-.56,0c-.18,0-.27,0-.27-.14s.11-.15.33-.15c.8,0,1.79.05,1.81.05.19,0,1.18-.05,1.8-.05.22,0,.33,0,.33.15s-.1.14-.29.14a1.82,1.82,0,0,0-.45,0c-.43.07-.55.34-.59.89s0,.95,0,3.34v1.69c0,1.74-.17,3.6-1.49,4.74a4.72,4.72,0,0,1-3.28,1.13,5,5,0,0,1-3.49-1.09c-.81-.72-1.41-1.89-1.41-4.17Z" transform="translate(-189.32 -319.57)" fill="#000"/>
  <path d="M295.32,469.39c0,1.23.23,1.64.55,1.75a2.57,2.57,0,0,0,.82.11c.17,0,.26,0,.26.12s-.14.16-.36.16c-1,0-1.65,0-1.95,0-.14,0-.88,0-1.7,0-.21,0-.35,0-.35-.16s.1-.12.25-.12a2.92,2.92,0,0,0,.71-.08c.41-.13.47-.59.49-2l.14-9.32c0-.31.05-.53.21-.53s.31.2.58.48,2.58,2.78,4.88,5.06c1.07,1.07,3.2,3.34,3.47,3.59h.07l-.15-7.07c0-1-.16-1.26-.54-1.42a2.68,2.68,0,0,0-.83-.09c-.19,0-.26-.05-.26-.14s.18-.15.41-.15c.82,0,1.58.05,1.91.05.17,0,.77-.05,1.54-.05.21,0,.37,0,.37.15s-.1.14-.29.14a1.6,1.6,0,0,0-.47,0c-.44.12-.57.45-.58,1.33l-.18,9.94c0,.35-.06.49-.2.49s-.36-.18-.54-.35c-1-.94-3-3-4.64-4.63s-3.47-3.67-3.75-4h-.05Z" transform="translate(-189.32 -319.57)" fill="#000"/>
  <path d="M313.91,464.19c0-2.39,0-2.83,0-3.34s-.19-.8-.53-.88a2.17,2.17,0,0,0-.57-.06c-.16,0-.25,0-.25-.16s.12-.13.38-.13c.59,0,1.59.05,2,.05s1.33-.05,1.92-.05c.21,0,.33,0,.33.13s-.09.16-.25.16a2,2,0,0,0-.47,0c-.43.07-.55.34-.58.89s0,.95,0,3.34V467c0,1.53,0,2.77.06,3.45.05.43.16.71.63.77a6.8,6.8,0,0,0,.8.07c.18,0,.25,0,.25.12s-.12.16-.3.16c-1,0-2,0-2.45,0s-1.36,0-2,0c-.2,0-.31,0-.31-.16s.06-.12.25-.12a2.59,2.59,0,0,0,.57-.07c.31-.06.41-.33.45-.79.08-.66.08-1.9.08-3.43Z" transform="translate(-189.32 -319.57)" fill="#000"/>
  <path d="M324.15,461.17c-.36-.87-.63-1-1.2-1.2a2.52,2.52,0,0,0-.61-.06c-.14,0-.19-.05-.19-.14s.17-.15.41-.15c.83,0,1.73.05,2.28.05s1.15-.05,1.94-.05c.19,0,.36,0,.36.15s-.09.14-.23.14a1.1,1.1,0,0,0-.62.11.38.38,0,0,0-.16.33,4.92,4.92,0,0,0,.37,1.21l2.7,7.15h.07c.67-1.73,2.72-6.8,3.1-7.84a1.92,1.92,0,0,0,.14-.58.29.29,0,0,0-.2-.3,1.91,1.91,0,0,0-.63-.08c-.14,0-.27,0-.27-.13s.14-.16.44-.16c.79,0,1.45.05,1.65.05s1-.05,1.48-.05c.21,0,.33,0,.33.15s-.09.14-.25.14a1.35,1.35,0,0,0-.77.19c-.21.14-.44.41-.87,1.41-.61,1.48-1,2.33-1.88,4.27-1,2.3-1.75,4-2.1,4.8s-.5,1.17-.72,1.17-.3-.22-.6-1Z" transform="translate(-189.32 -319.57)" fill="#000"/>
  <path d="M341.57,464.19c0-2.39,0-2.83,0-3.34s-.16-.79-.68-.89a2.72,2.72,0,0,0-.62,0c-.17,0-.26,0-.26-.14s.11-.15.34-.15c.84,0,1.83.05,2.27.05h3.94c.3,0,.55-.07.67-.1a1.22,1.22,0,0,1,.26-.06c.08,0,.09.06.09.14a10.27,10.27,0,0,0-.13,1c0,.16,0,.85-.07,1s-.05.18-.16.18-.14-.08-.14-.22a1.67,1.67,0,0,0-.1-.57c-.11-.28-.27-.47-1.05-.57-.27,0-1.92-.06-2.24-.06-.08,0-.11.05-.11.16v4c0,.11,0,.17.11.17.35,0,2.16,0,2.52,0a1.16,1.16,0,0,0,.76-.23c.11-.13.17-.21.25-.21s.11,0,.11.13-.06.34-.13,1.15c0,.31-.06.94-.06,1.05s0,.3-.14.3-.14-.06-.14-.14a4.62,4.62,0,0,0-.07-.57c-.08-.31-.3-.55-.88-.61-.3,0-1.86-.05-2.24-.05-.07,0-.09.06-.09.16V467c0,.54,0,2,0,2.44,0,1.09.28,1.33,1.89,1.33a4,4,0,0,0,1.48-.19c.41-.19.6-.52.71-1.17,0-.17.06-.23.17-.23s.13.12.13.28a12.31,12.31,0,0,1-.21,1.75c-.11.41-.25.41-.85.41-2.37,0-3.43-.1-4.36-.1-.36,0-1.35,0-2,0-.21,0-.32,0-.32-.16s.07-.12.25-.12a2.59,2.59,0,0,0,.57-.07c.32-.06.39-.41.46-.86.08-.66.08-1.91.08-3.36Z" transform="translate(-189.32 -319.57)" fill="#000"/>
  <path d="M356.08,464.19c0-2.39,0-2.83,0-3.34s-.15-.79-.67-.89a2.72,2.72,0,0,0-.62,0c-.17,0-.27,0-.27-.14s.12-.15.35-.15c.84,0,1.83.05,2.16.05.53,0,1.73-.05,2.22-.05a5.07,5.07,0,0,1,2.9.68,2.73,2.73,0,0,1,1.07,2.16c0,1.16-.49,2.23-2.08,3.53,1.4,1.76,2.49,3.16,3.42,4.14a3.15,3.15,0,0,0,1.76,1.07,2.58,2.58,0,0,0,.44.05c.13,0,.19,0,.19.12s-.11.16-.3.16h-1.5a3.19,3.19,0,0,1-1.68-.3,7.51,7.51,0,0,1-2.16-2.31c-.63-.87-1.35-1.94-1.56-2.18a.34.34,0,0,0-.28-.11l-1.37,0c-.08,0-.13,0-.13.13V467c0,1.46,0,2.71.08,3.37.05.45.14.8.62.86a7.58,7.58,0,0,0,.77.07c.12,0,.19,0,.19.12s-.11.16-.32.16c-.91,0-2.08,0-2.31,0s-1.29,0-1.92,0c-.21,0-.32,0-.32-.16s.06-.12.25-.12a2.59,2.59,0,0,0,.57-.07c.31-.06.39-.41.46-.86.07-.66.07-1.91.07-3.36Zm1.86,1.24c0,.18,0,.24.14.29a4.24,4.24,0,0,0,1.2.16,1.6,1.6,0,0,0,1.12-.27,2.78,2.78,0,0,0,.93-2.36c0-2.24-1.48-2.89-2.41-2.89a3.31,3.31,0,0,0-.84.07c-.11,0-.14.09-.14.22Z" transform="translate(-189.32 -319.57)" fill="#000"/>
  <path d="M371.68,471.34c-.26-.11-.3-.19-.3-.54,0-.86.06-1.81.08-2.06s.06-.41.18-.41.16.14.16.27a3.21,3.21,0,0,0,.14.8A2.17,2.17,0,0,0,374.2,471a1.91,1.91,0,0,0,2.1-1.79c0-.77-.23-1.5-1.54-2.52l-.72-.57c-1.73-1.35-2.33-2.45-2.33-3.73,0-1.73,1.45-3,3.63-3a7.62,7.62,0,0,1,2.1.27c.14,0,.22.08.22.19s-.06.66-.06,1.89c0,.35-.05.47-.18.47s-.15-.09-.15-.28a1.92,1.92,0,0,0-.41-1,2,2,0,0,0-1.72-.77,1.65,1.65,0,0,0-1.87,1.62c0,.72.36,1.28,1.67,2.27l.44.33c1.9,1.43,2.58,2.52,2.58,4a3.17,3.17,0,0,1-1.48,2.74,4.52,4.52,0,0,1-2.51.65A5.39,5.39,0,0,1,371.68,471.34Z" transform="translate(-189.32 -319.57)" fill="#000"/>
  <path d="M386.27,464.19c0-2.39,0-2.83,0-3.34s-.19-.8-.53-.88a2.17,2.17,0,0,0-.57-.06c-.16,0-.25,0-.25-.16s.12-.13.37-.13c.6,0,1.6.05,2.05.05s1.32-.05,1.92-.05c.21,0,.33,0,.33.13s-.09.16-.25.16a2,2,0,0,0-.47,0c-.43.07-.55.34-.58.89s0,.95,0,3.34V467c0,1.53,0,2.77.07,3.45,0,.43.16.71.63.77a7,7,0,0,0,.8.07c.17,0,.25,0,.25.12s-.12.16-.3.16c-1,0-2,0-2.45,0s-1.36,0-2,0c-.2,0-.31,0-.31-.16s.06-.12.25-.12a2.67,2.67,0,0,0,.57-.07c.31-.06.41-.33.45-.79.08-.66.08-1.9.08-3.43Z" transform="translate(-189.32 -319.57)" fill="#000"/>
  <path d="M400.05,460.51l-2.34.06c-.92,0-1.3.11-1.53.46a1.68,1.68,0,0,0-.27.55c0,.12-.08.19-.17.19s-.15-.08-.15-.26a18.37,18.37,0,0,1,.34-1.81c0-.2.09-.3.18-.3a3.75,3.75,0,0,0,.68.19,15.75,15.75,0,0,0,1.58.08h6.23a7.75,7.75,0,0,0,1.09-.08,3.53,3.53,0,0,1,.42-.08c.11,0,.13.1.13.33s-.05,1.42-.05,1.83c0,.16,0,.25-.14.25s-.16-.08-.17-.31l0-.18c0-.4-.45-.85-1.86-.88l-2,0V467c0,1.45,0,2.7.08,3.37,0,.44.14.79.61.85a7,7,0,0,0,.81.07c.17,0,.25,0,.25.12s-.13.16-.3.16c-1,0-2,0-2.47,0s-1.36,0-2,0c-.2,0-.31,0-.31-.16s.06-.12.25-.12a2.67,2.67,0,0,0,.57-.07c.31-.06.41-.41.45-.86.08-.66.08-1.91.08-3.36Z" transform="translate(-189.32 -319.57)" fill="#000"/>
  <path d="M415.47,467.45a3.36,3.36,0,0,0-.36-1.65c-.11-.26-2.22-3.72-2.77-4.54a4.05,4.05,0,0,0-1.09-1.15,1.61,1.61,0,0,0-.66-.2c-.13,0-.24,0-.24-.14s.11-.15.3-.15,1.47.05,2,.05c.33,0,1-.05,1.68-.05q.24,0,.24.15c0,.09-.11.11-.35.17a.29.29,0,0,0-.22.28,1.46,1.46,0,0,0,.19.54c.22.47,2.42,4.27,2.68,4.71.15-.38,2.14-3.85,2.36-4.33a2,2,0,0,0,.22-.82.38.38,0,0,0-.33-.4c-.14,0-.29-.06-.29-.15s.08-.15.27-.15c.52,0,1,.05,1.48.05s1.39-.05,1.69-.05.28,0,.28.13-.12.16-.3.16a1.64,1.64,0,0,0-.69.19,2.19,2.19,0,0,0-.85.77,49.23,49.23,0,0,0-3,5,3.68,3.68,0,0,0-.24,1.57v1.29c0,.25,0,.92.05,1.58,0,.45.17.8.65.86a6.85,6.85,0,0,0,.78.07c.18,0,.26,0,.26.12s-.13.16-.33.16c-1,0-2,0-2.41,0s-1.39,0-2,0c-.22,0-.35,0-.35-.16s.08-.12.25-.12a2.55,2.55,0,0,0,.55-.07c.32-.06.46-.41.49-.86.05-.66.05-1.33.05-1.58Z" transform="translate(-189.32 -319.57)" fill="#000"/>
</svg>
