<svg xmlns="http://www.w3.org/2000/svg" width="500.4" height="238.32" viewBox="0 0 500.4 238.32"><g id="Icon"><path d="M136.24,304.07c2.95-27.91,15.56-28.3,19-23.68,6.7,12.65,12.61,19.77,20.13,22.74,4.52,1.26,7.3,4.81,7,7.4,83.47.78,162.92.22,233.1-2.44a5.64,5.64,0,0,1,5.69-5.24c5.88-.11,15.49-12.42,24.14-25.67,4-4.83,17.11.67,16.5,12.9,17.78-31.27,48.94-89,67.64-132.79-132.84,61.32-280.07,73.1-439.49,37.88C105.15,254.74,116.71,292.45,136.24,304.07Z" transform="translate(-58.18 -120.05)" fill="#231f20"/><path d="M65.38,181.84C51.83,175,59.76,153,69.89,155.53,214,202.26,381.32,196,545.87,120.78c12.45-4.9,17.63,16.47,6.87,22.18-7.54,4.16-14.56,7-22.85,10.79C390.74,214.27,253.23,226.92,88.9,191,80.51,188.18,72.86,185.57,65.38,181.84Z" transform="translate(-58.18 -120.05)" fill="#231f20"/><path d="M138.82,304.77c.16-14.14,5.23-20.25,8.91-23.27,1.73-1.51,4.28-1.64,5.78.65,5.17,11.62,14.29,21,20.87,22.76s8,6.83,1.38,10.12c-4,2.13-8.25-.67-11.22,6-.17,10.31-1.25,21.75,0,25.53,4.74,2.09,6.14,11.39.2,11.39H137.83c-2.28,0-3.6-5.84,0-8.84,4.57-3.41,10.91-2.19,12.18-10.21l.19-21C150.13,310.77,138.86,308.77,138.82,304.77Z" transform="translate(-58.18 -120.05)" fill="#231f20"/><path d="M421.84,304.9c7-.66,16.35-12.42,24.08-24.29,4.28-7.73,16.28,2.16,13.16,12.37-4.08,14.61-11.34,18.25-11.56,24.19l0,22.94c.38,5.32,13,9.28,13,13.75.25,3-.71,4.51-4.9,4.51H430.21c-2.65,0-3.7-7.31,1.77-12,.92-2.11.31-15.78.2-25.72.06-3.37-8.28-4.91-13.35-9.72C416.48,308.69,417.87,304.94,421.84,304.9Z" transform="translate(-58.18 -120.05)" fill="#231f20"/></g></svg>